<svg width="82" height="6" viewBox="0 0 82 6" fill="none" xmlns="http://www.w3.org/2000/svg">
<path d="M4.88549 4.64352C4.66563 4.85508 4.40307 5.02087 4.09782 5.14089C3.79257 5.26091 3.45957 5.32092 3.09882 5.32092C2.73807 5.32092 2.40507 5.26193 2.09982 5.14394C1.7967 5.02596 1.53308 4.86017 1.30894 4.64657C1.08481 4.43094 0.910838 4.17869 0.78703 3.88983C0.663222 3.59893 0.601318 3.28261 0.601318 2.94086C0.601318 2.59707 0.663222 2.28074 0.78703 1.99188C0.910838 1.70098 1.08481 1.44874 1.30894 1.23514C1.53308 1.02155 1.7967 0.855756 2.09982 0.73777C2.40507 0.619784 2.73807 0.560791 3.09882 0.560791C3.45743 0.560791 3.78937 0.620801 4.09462 0.740822C4.39987 0.858808 4.66243 1.02358 4.88229 1.23514L4.48845 1.61656C4.31769 1.43552 4.11276 1.29414 3.87369 1.19242C3.63461 1.08868 3.37312 1.0368 3.08921 1.0368C2.81385 1.0368 2.55983 1.08461 2.32716 1.18022C2.09448 1.27379 1.89169 1.40704 1.71879 1.57995C1.54802 1.75082 1.41461 1.95221 1.31855 2.18412C1.22463 2.41602 1.17766 2.66827 1.17766 2.94086C1.17766 3.21548 1.22463 3.46874 1.31855 3.70065C1.41461 3.93052 1.54802 4.13191 1.71879 4.30482C1.89169 4.47569 2.09448 4.60894 2.32716 4.70455C2.55983 4.79812 2.81385 4.84491 3.08921 4.84491C3.37312 4.84491 3.63461 4.79405 3.87369 4.69234C4.11276 4.58859 4.31769 4.4462 4.48845 4.26515L4.88549 4.64352Z" fill="white"/>
<path d="M7.99136 5.32092C7.63061 5.32092 7.29761 5.26193 6.99236 5.14394C6.68924 5.02596 6.42562 4.86017 6.20148 4.64657C5.97735 4.43094 5.80338 4.17869 5.67957 3.88983C5.55576 3.59893 5.49386 3.28261 5.49386 2.94086C5.49386 2.59707 5.55576 2.28074 5.67957 1.99188C5.80338 1.70098 5.97735 1.44874 6.20148 1.23514C6.42562 1.02155 6.68924 0.855756 6.99236 0.73777C7.29761 0.619784 7.63061 0.560791 7.99136 0.560791C8.35211 0.560791 8.68404 0.619784 8.98716 0.73777C9.29027 0.855756 9.5539 1.02155 9.77803 1.23514C10.0022 1.44874 10.1761 1.70098 10.2999 1.99188C10.4238 2.28074 10.4857 2.59707 10.4857 2.94086C10.4857 3.28261 10.4238 3.59893 10.2999 3.88983C10.1761 4.17869 10.0022 4.43094 9.77803 4.64657C9.5539 4.86017 9.29027 5.02596 8.98716 5.14394C8.68404 5.26193 8.35211 5.32092 7.99136 5.32092ZM7.99136 4.84491C8.26673 4.84491 8.52074 4.7971 8.75342 4.7015C8.98823 4.60589 9.19208 4.47264 9.36499 4.30177C9.53789 4.12886 9.6713 3.92747 9.76523 3.6976C9.86128 3.46569 9.90931 3.21345 9.90931 2.94086C9.90931 2.66827 9.86128 2.41602 9.76523 2.18412C9.6713 1.95221 9.53789 1.75082 9.36499 1.57995C9.19208 1.40704 8.98823 1.27379 8.75342 1.18022C8.52074 1.08461 8.26673 1.0368 7.99136 1.0368C7.71599 1.0368 7.46091 1.08461 7.2261 1.18022C6.99343 1.27379 6.79064 1.40704 6.61773 1.57995C6.44483 1.75082 6.31035 1.95221 6.21429 2.18412C6.11823 2.41602 6.07021 2.66827 6.07021 2.94086C6.07021 3.21345 6.11823 3.46569 6.21429 3.6976C6.31035 3.9295 6.44483 4.13191 6.61773 4.30482C6.79064 4.47569 6.99343 4.60894 7.2261 4.70455C7.46091 4.79812 7.71599 4.84491 7.99136 4.84491Z" fill="white"/>
<path d="M15.4358 5.22938H14.8403L11.8209 1.49146V5.22938H11.2573V0.652332H11.8529L14.8723 4.39026V0.652332H15.4358V5.22938Z" fill="white"/>
<path d="M20.6101 5.22938H20.0146L16.9952 1.49146V5.22938H16.4316V0.652332H17.0272L20.0466 4.39026V0.652332H20.6101V5.22938Z" fill="white"/>
<path d="M21.6059 5.22938V0.652332H24.5485V1.12835H22.1695V2.66623H24.4172V3.14225H22.1695V4.75337H24.5805V5.22938H21.6059Z" fill="white"/>
<path d="M29.5723 4.64352C29.3525 4.85508 29.0899 5.02087 28.7847 5.14089C28.4794 5.26091 28.1464 5.32092 27.7857 5.32092C27.4249 5.32092 27.0919 5.26193 26.7867 5.14394C26.4835 5.02596 26.2199 4.86017 25.9958 4.64657C25.7716 4.43094 25.5977 4.17869 25.4739 3.88983C25.3501 3.59893 25.2882 3.28261 25.2882 2.94086C25.2882 2.59707 25.3501 2.28074 25.4739 1.99188C25.5977 1.70098 25.7716 1.44874 25.9958 1.23514C26.2199 1.02155 26.4835 0.855756 26.7867 0.73777C27.0919 0.619784 27.4249 0.560791 27.7857 0.560791C28.1443 0.560791 28.4762 0.620801 28.7815 0.740822C29.0867 0.858808 29.3493 1.02358 29.5691 1.23514L29.1753 1.61656C29.0045 1.43552 28.7996 1.29414 28.5605 1.19242C28.3214 1.08868 28.06 1.0368 27.7761 1.0368C27.5007 1.0368 27.2467 1.08461 27.014 1.18022C26.7813 1.27379 26.5785 1.40704 26.4056 1.57995C26.2349 1.75082 26.1014 1.95221 26.0054 2.18412C25.9115 2.41602 25.8645 2.66827 25.8645 2.94086C25.8645 3.21548 25.9115 3.46874 26.0054 3.70065C26.1014 3.93052 26.2349 4.13191 26.4056 4.30482C26.5785 4.47569 26.7813 4.60894 27.014 4.70455C27.2467 4.79812 27.5007 4.84491 27.7761 4.84491C28.06 4.84491 28.3214 4.79405 28.5605 4.69234C28.7996 4.58859 29.0045 4.4462 29.1753 4.26515L29.5723 4.64352Z" fill="white"/>
<path d="M32.1275 5.22938H31.5639V1.12835H30.0206V0.652332H33.6708V1.12835H32.1275V5.22938Z" fill="white"/>
<path d="M35.8801 5.22938V0.652332H38.8227V1.12835H36.4437V2.66623H38.6914V3.14225H36.4437V4.75337H38.8547V5.22938H35.8801Z" fill="white"/>
<path d="M42.0534 5.22938H41.4355L39.4663 0.652332H40.0618L41.746 4.64962L43.4271 0.652332H44.0226L42.0534 5.22938Z" fill="white"/>
<path d="M44.7302 5.22938V0.652332H47.6728V1.12835H45.2938V2.66623H47.5415V3.14225H45.2938V4.75337H47.7048V5.22938H44.7302Z" fill="white"/>
<path d="M52.1395 5.22938H51.5119L50.3656 3.36805H49.2321V5.22938H48.6686V0.652332H50.3304C50.6741 0.652332 50.9697 0.707257 51.2173 0.817106C51.465 0.926955 51.656 1.08359 51.7905 1.28702C51.925 1.48841 51.9922 1.72946 51.9922 2.01019C51.9922 2.3377 51.9004 2.61233 51.7168 2.83406C51.5354 3.05579 51.2803 3.20938 50.9516 3.29482L52.1395 5.22938ZM49.2321 2.89204H50.2952C50.6431 2.89204 50.9164 2.81372 51.1149 2.65708C51.3155 2.50044 51.4159 2.28481 51.4159 2.01019C51.4159 1.73557 51.3166 1.51994 51.1181 1.3633C50.9196 1.20666 50.6453 1.12835 50.2952 1.12835H49.2321V2.89204Z" fill="white"/>
<path d="M54.7587 5.22938H54.1951V3.27346L52.3316 0.652332H53.0168L54.4769 2.8249L55.9434 0.652332H56.6254L54.7587 3.27956V5.22938Z" fill="white"/>
<path d="M61.8413 5.22938H61.3546L60.1443 1.5769L58.934 5.22938H58.4473L56.8847 0.652332H57.4739L58.6874 4.31397L59.901 0.652332H60.3877L61.598 4.30482L62.8051 0.652332H63.3975L61.8413 5.22938Z" fill="white"/>
<path d="M64.6334 5.22938H64.0699V0.652332H64.6334V2.73336H67.3134V0.652332H67.877V5.22938H67.3134V3.20938H64.6334V5.22938Z" fill="white"/>
<path d="M68.8727 5.22938V0.652332H71.8153V1.12835H69.4363V2.66623H71.684V3.14225H69.4363V4.75337H71.8473V5.22938H68.8727Z" fill="white"/>
<path d="M76.282 5.22938H75.6544L74.5081 3.36805H73.3747V5.22938H72.8111V0.652332H74.4729C74.8166 0.652332 75.1122 0.707257 75.3598 0.817106C75.6075 0.926955 75.7985 1.08359 75.933 1.28702C76.0675 1.48841 76.1347 1.72946 76.1347 2.01019C76.1347 2.3377 76.0429 2.61233 75.8594 2.83406C75.6779 3.05579 75.4228 3.20938 75.0941 3.29482L76.282 5.22938ZM73.3747 2.89204H74.4377C74.7856 2.89204 75.0589 2.81372 75.2574 2.65708C75.458 2.50044 75.5584 2.28481 75.5584 2.01019C75.5584 1.73557 75.4591 1.51994 75.2606 1.3633C75.0621 1.20666 74.7878 1.12835 74.4377 1.12835H73.3747V2.89204Z" fill="white"/>
<path d="M77.0184 5.22938V0.652332H79.961V1.12835H77.582V2.66623H79.8297V3.14225H77.582V4.75337H79.993V5.22938H77.0184Z" fill="white"/>
<path d="M81.2002 5.29041C81.1062 5.29041 81.0294 5.26295 80.9696 5.20802C80.912 5.15106 80.8832 5.07783 80.8832 4.98832C80.8832 4.89678 80.912 4.82253 80.9696 4.76557C81.0294 4.70862 81.1062 4.68014 81.2002 4.68014C81.2941 4.68014 81.3709 4.70862 81.4307 4.76557C81.4926 4.82253 81.5236 4.89678 81.5236 4.98832C81.5236 5.07783 81.4926 5.15106 81.4307 5.20802C81.3709 5.26295 81.2941 5.29041 81.2002 5.29041Z" fill="white"/>
</svg>
