<svg width="72" height="10" viewBox="0 0 72 10" fill="none" xmlns="http://www.w3.org/2000/svg">
<g id="Frame 22">
<g id="PAY">
<path d="M37.2551 8.96166C37.1883 9.60064 36.8208 9.94675 36.1526 10C35.8408 10 35.5679 9.90415 35.3341 9.71246C35.1114 9.51012 35 9.25985 35 8.96166V1.42173C35.0111 1.12354 35.1281 0.878594 35.3508 0.686901C35.5735 0.484558 35.8408 0.383387 36.1526 0.383387H43.1684C44.1484 0.415335 44.8889 0.623003 45.3901 1.00639C45.8912 1.37913 46.2531 1.80511 46.4758 2.28434C46.6986 2.76358 46.8099 3.24814 46.8099 3.73802C46.8099 4.2492 46.6986 4.74441 46.4758 5.22364C46.2643 5.70288 45.9023 6.13419 45.3901 6.51757C44.8889 6.89031 44.2486 7.07135 43.4691 7.0607H39.2596C38.9478 7.0607 38.6861 6.95421 38.4745 6.74121C38.2518 6.53887 38.1404 6.2886 38.1404 5.99042C38.1404 5.69223 38.2462 5.44196 38.4578 5.23962C38.6805 5.02662 38.9478 4.92013 39.2596 4.92013H43.5693C43.7809 4.92013 43.9535 4.85623 44.0871 4.72843C44.2319 4.58999 44.3377 4.43557 44.4045 4.26518C44.4713 4.08413 44.5047 3.90309 44.5047 3.72204C44.5047 3.55165 44.4713 3.38126 44.4045 3.21086C44.3377 3.02982 44.2319 2.8754 44.0871 2.7476C43.9535 2.60916 43.7809 2.53461 43.5693 2.52396H37.6894C37.3998 2.53461 37.2551 2.67306 37.2551 2.9393V8.96166Z" fill="#2176FF"/>
<path d="M52.3391 7.33227C52.3391 7.03408 52.4448 6.78381 52.6564 6.58147C52.8792 6.36848 53.1464 6.26198 53.4582 6.26198H56.014L55.5797 5.07987C55.4015 4.64324 55.2233 4.23323 55.0451 3.84984C54.8781 3.4558 54.6832 3.09904 54.4605 2.77955C54.26 2.46006 54.0318 2.28967 53.7756 2.26837C53.5084 2.28967 53.2689 2.46006 53.0573 2.77955C52.8457 3.09904 52.6509 3.4558 52.4727 3.84984C52.3056 4.23323 52.133 4.64324 51.9549 5.07987L50.3679 9.23323C50.2566 9.45687 50.1118 9.64324 49.9336 9.79233C49.7666 9.93078 49.5105 10 49.1652 10C48.8423 10 48.575 9.8935 48.3634 9.68051C48.163 9.46752 48.0739 9.21193 48.0962 8.91374C48.1073 8.77529 48.1407 8.6475 48.1964 8.53035L50.0339 3.99361C50.5461 2.80085 51.0584 1.83706 51.5707 1.10224C52.0718 0.378062 52.8068 0.0106496 53.7756 0C54.7333 0.0106496 55.4628 0.378062 55.9639 1.10224C56.4761 1.81576 56.9884 2.77955 57.5007 3.99361L59.3382 8.53035C59.3938 8.6475 59.4272 8.77529 59.4384 8.91374C59.4606 9.21193 59.366 9.46752 59.1544 9.68051C58.954 9.8935 58.6922 10 58.3693 10C58.0018 10 57.729 9.93078 57.5508 9.79233C57.3837 9.64324 57.2445 9.45687 57.1332 9.23323L56.8158 8.40256H53.4582C53.1464 8.40256 52.8847 8.29606 52.6731 8.08307C52.4504 7.88072 52.3391 7.63046 52.3391 7.33227Z" fill="#2176FF"/>
<path d="M62.228 0.127796C62.5398 0.127796 62.8071 0.228967 63.0298 0.43131C63.2525 0.623003 63.3695 0.867945 63.3806 1.16613V1.46965C63.3695 1.90628 63.3973 2.31097 63.4641 2.68371C63.5421 3.04579 63.7202 3.37061 63.9986 3.65815C64.2771 3.94569 64.6278 4.10011 65.051 4.12141H69.7449V1.19808C69.7449 0.899893 69.8563 0.654952 70.079 0.463259C70.3129 0.260916 70.5857 0.159744 70.8975 0.159744C71.5657 0.212993 71.9332 0.559105 72 1.19808V4.90415C72 5.75612 71.8775 6.56017 71.6325 7.31629C71.4098 7.98722 71.0423 8.55698 70.53 9.02556C70.0289 9.48349 69.3886 9.73376 68.609 9.77636H62.5955C62.2948 9.76571 62.0387 9.66454 61.8271 9.47284C61.6266 9.2705 61.5208 9.02556 61.5097 8.73802C61.5097 8.43983 61.6099 8.18424 61.8104 7.97125C62.022 7.75825 62.2837 7.64643 62.5955 7.63578H68.0411C68.4643 7.61448 68.815 7.46006 69.0935 7.17252C69.3496 6.90628 69.5222 6.60277 69.6113 6.26198H64.4831C63.7035 6.21938 63.0576 5.96912 62.5454 5.51118C62.0442 5.0426 61.6823 4.47284 61.4596 3.80192C61.248 3.13099 61.1366 2.41747 61.1255 1.66134V1.16613C61.1366 0.878594 61.248 0.638978 61.4596 0.447284C61.6712 0.244941 61.9273 0.138445 62.228 0.127796Z" fill="#2176FF"/>
</g>
<g id="Group 5">
<path id="K" d="M1.0967 0.128662C1.38279 0.139258 1.6265 0.245219 1.82783 0.446545C2.02915 0.637275 2.13511 0.875687 2.14571 1.16178V8.94992C2.08213 9.58568 1.73246 9.93006 1.0967 9.98304C0.800006 9.98304 0.540401 9.88767 0.317883 9.69694C0.105961 9.49562 0 9.24661 0 8.94992V1.16178C0.0105961 0.865091 0.121855 0.621381 0.333777 0.430651C0.545699 0.229325 0.800006 0.128662 1.0967 0.128662ZM3.8146 2.92603C4.52454 2.44921 5.48348 1.96709 6.69144 1.47967L9.29808 0.367074C9.41464 0.314094 9.54179 0.282306 9.67954 0.271709C9.97623 0.250517 10.2305 0.340584 10.4425 0.54191C10.6544 0.73264 10.7603 0.981648 10.7603 1.28894C10.7603 1.63861 10.6862 1.89821 10.5378 2.06775C10.4001 2.22669 10.2199 2.35914 9.99742 2.4651L7.77224 3.30749C7.3378 3.47703 6.92455 3.64657 6.5325 3.81611C6.15104 3.97505 5.80137 4.16048 5.48348 4.3724C5.1656 4.56313 4.99606 4.78035 4.97487 5.02406C4.99606 5.25718 5.1656 5.4744 5.48348 5.67572C5.80137 5.88764 6.15104 6.07837 6.5325 6.24791C6.92455 6.40685 7.3378 6.57109 7.77224 6.74063L10.2517 7.6466C10.4742 7.75256 10.6544 7.89031 10.7921 8.05984C10.9405 8.21879 11.0146 8.47309 11.0146 8.82276C11.0146 9.13005 10.9087 9.38436 10.6968 9.58568C10.4848 9.77641 10.2305 9.86118 9.93385 9.83999C9.7961 9.82939 9.66894 9.7976 9.55239 9.74462L6.69144 8.56846C5.48348 8.08104 4.51924 7.59891 3.7987 7.12209C3.08876 6.63467 2.7285 5.93533 2.7179 5.02406C2.7285 4.1128 3.09406 3.41345 3.8146 2.92603Z" fill="#2176FF"/>
<path id="R" d="M20.0489 8.94988C19.9853 9.58565 19.6356 9.93002 18.9999 9.983C18.7032 9.983 18.4436 9.88764 18.2211 9.69691C18.0091 9.49558 17.9032 9.24657 17.9032 8.94988V1.41605C17.9138 1.11936 18.025 0.875653 18.237 0.684923C18.4489 0.483598 18.7032 0.382935 18.9999 0.382935H25.6595C25.7231 0.382935 25.7867 0.388233 25.8503 0.398829H25.9456C26.6874 0.420021 27.2966 0.589559 27.7735 0.907442C28.2503 1.22532 28.5946 1.59089 28.8066 2.00414C29.0185 2.40679 29.1245 2.81474 29.1245 3.22799C29.1245 3.65183 29.0185 4.07038 28.8066 4.48363C28.6052 4.88628 28.2609 5.24655 27.7735 5.56443C27.2966 5.88231 26.6874 6.05185 25.9456 6.07304H23.1483C23.233 6.60285 23.4079 6.9949 23.6728 7.24921C23.9271 7.50352 24.2502 7.63067 24.6423 7.63067H28.0754C28.3721 7.64126 28.6158 7.75252 28.8066 7.96445C29.0079 8.17637 29.1086 8.43067 29.1086 8.72737C29.098 9.01346 28.992 9.25717 28.7907 9.4585C28.5999 9.64923 28.3615 9.74989 28.0754 9.76049H24.3562C23.5721 9.77108 22.8622 9.46379 22.2264 8.83862C21.5906 8.21345 21.2039 7.47173 21.0661 6.61344C20.8754 5.65979 20.78 5.12469 20.78 5.00813C20.78 4.71144 20.8807 4.46243 21.082 4.26111C21.2939 4.04919 21.5482 3.94322 21.8449 3.94322H26.041C26.2423 3.93263 26.4066 3.89024 26.5337 3.81607C26.6715 3.7313 26.7721 3.64124 26.8357 3.54587C26.8993 3.43991 26.9311 3.33395 26.9311 3.22799C26.9311 3.12203 26.8993 3.02136 26.8357 2.926C26.7721 2.82004 26.6715 2.72997 26.5337 2.6558C26.4066 2.57103 26.2423 2.52335 26.041 2.51275H20.4621C20.1866 2.52335 20.0489 2.6611 20.0489 2.926V8.94988Z" fill="#2176FF"/>
<path id="Vector 19 (Stroke)" fill-rule="evenodd" clip-rule="evenodd" d="M14.5509 0C15.165 0 15.6629 0.497831 15.6629 1.11194V8.88806C15.6629 9.50217 15.165 10 14.5509 10C13.9368 10 13.439 9.50217 13.439 8.88806V1.11194C13.439 0.497831 13.9368 0 14.5509 0Z" fill="#2176FF"/>
<path id="Vector 20 (Stroke)" fill-rule="evenodd" clip-rule="evenodd" d="M32.0924 0C32.7065 0 33.2043 0.497831 33.2043 1.11194V8.88806C33.2043 9.50217 32.7065 10 32.0924 10C31.4783 10 30.9805 9.50217 30.9805 8.88806V1.11194C30.9805 0.497831 31.4783 0 32.0924 0Z" fill="#2176FF"/>
</g>
</g>
</svg>
