<svg width="96" height="19" viewBox="0 0 96 19" fill="none" xmlns="http://www.w3.org/2000/svg">
<g id="Logo ">
<g id="QR">
<path d="M70.3538 1C71.207 1.01662 71.9682 1.28255 72.6374 1.79778C73.3066 2.31302 73.8419 2.92798 74.2434 3.64266C74.6616 4.35734 74.9711 5.11357 75.1719 5.91136C75.3726 6.70914 75.473 7.52355 75.473 8.35457C75.473 9.45152 75.2974 10.5319 74.946 11.5956C74.6115 12.6427 74.051 13.5734 73.2647 14.3878C72.4952 15.2022 71.5249 15.6427 70.3538 15.7091H67.4429V17.3795C67.3425 18.3767 66.7905 18.9169 65.7867 19C65.3183 19 64.9084 18.8421 64.5571 18.5263C64.2225 18.2271 64.0552 17.8449 64.0552 17.3795V15.7091H61.0941C59.923 15.6593 58.9444 15.2271 58.1581 14.4127C57.3718 13.5983 56.8114 12.6593 56.4768 11.5956C56.1589 10.5319 56 9.45152 56 8.35457C56 7.25762 56.1673 6.1856 56.5019 5.1385C56.8365 4.07479 57.3885 3.13573 58.1581 2.32133C58.9444 1.4903 59.923 1.04986 61.0941 1H70.3538ZM69.5006 12.3684C70.1363 12.3352 70.6633 12.1025 71.0816 11.6704C71.5165 11.2216 71.826 10.7064 72.01 10.1247C72.1941 9.54294 72.2861 8.95291 72.2861 8.35457C72.2861 7.75623 72.1857 7.17452 71.9849 6.60942C71.8009 6.0277 71.4998 5.51247 71.0816 5.06371C70.6633 4.61496 70.1363 4.37396 69.5006 4.34072H61.872C61.2363 4.37396 60.7093 4.61496 60.2911 5.06371C59.8729 5.51247 59.5634 6.0277 59.3626 6.60942C59.1786 7.17452 59.0866 7.75623 59.0866 8.35457C59.0866 8.95291 59.1786 9.54294 59.3626 10.1247C59.5466 10.7064 59.8478 11.2216 60.266 11.6704C60.701 12.1025 61.2363 12.3352 61.872 12.3684H64.0552V11.1468C64.0719 10.6814 64.2476 10.2992 64.5822 10C64.9168 9.68421 65.3183 9.52632 65.7867 9.52632C66.2384 9.54294 66.6232 9.70914 66.941 10.0249C67.2589 10.3241 67.4262 10.6981 67.4429 11.1468V12.3684H69.5006Z" fill="white"/>
<path d="M81.6713 14.4377C81.5709 15.4349 81.0188 15.9751 80.0151 16.0582C79.5466 16.0582 79.1368 15.9086 78.7854 15.6094C78.4509 15.2936 78.2836 14.903 78.2836 14.4377V2.6205C78.3003 2.15512 78.476 1.77285 78.8105 1.47368C79.1451 1.15789 79.5466 1 80.0151 1H90.5295C90.6299 1 90.7302 1.00831 90.8306 1.02493H90.9812C92.1522 1.05817 93.1142 1.3241 93.867 1.82271C94.6198 2.32133 95.1635 2.89474 95.4981 3.54294C95.8327 4.17452 96 4.8144 96 5.4626C96 6.12742 95.8327 6.78393 95.4981 7.43213C95.1803 8.06371 94.6366 8.62881 93.867 9.12742C93.1142 9.62604 92.1522 9.89197 90.9812 9.92521H86.5646C86.6985 10.7562 86.9745 11.3712 87.3927 11.7701C87.7942 12.169 88.3045 12.3684 88.9235 12.3684H94.3438C94.8122 12.385 95.197 12.5596 95.4981 12.892C95.816 13.2244 95.9749 13.6233 95.9749 14.0886C95.9582 14.5374 95.7909 14.9197 95.473 15.2355C95.1719 15.5346 94.7955 15.6925 94.3438 15.7091H88.4718C87.2338 15.7258 86.1129 15.2438 85.1092 14.2632C84.1054 13.2825 83.4948 12.1191 83.2773 10.7729C82.9762 9.27701 82.8256 8.43767 82.8256 8.25485C82.8256 7.78947 82.9845 7.39889 83.3024 7.0831C83.637 6.75069 84.0385 6.58449 84.5069 6.58449H91.1317C91.4496 6.56787 91.7089 6.50139 91.9097 6.38504C92.1271 6.25208 92.2861 6.1108 92.3864 5.96122C92.4868 5.79501 92.537 5.62881 92.537 5.4626C92.537 5.2964 92.4868 5.1385 92.3864 4.98892C92.2861 4.82271 92.1271 4.68144 91.9097 4.5651C91.7089 4.43213 91.4496 4.35734 91.1317 4.34072H82.3237C81.8888 4.35734 81.6713 4.57341 81.6713 4.98892V14.4377Z" fill="white"/>
</g>
<g id="Group 5">
<path id="K" d="M1.75471 0.205811C2.21247 0.222764 2.6024 0.392302 2.92452 0.714423C3.24665 1.01959 3.41618 1.40105 3.43314 1.8588V14.3198C3.33141 15.337 2.77194 15.888 1.75471 15.9728C1.28001 15.9728 0.864642 15.8202 0.508613 15.5151C0.169538 15.1929 0 14.7945 0 14.3198V1.8588C0.0169538 1.3841 0.194968 0.994161 0.534044 0.688993C0.873119 0.366871 1.28001 0.205811 1.75471 0.205811ZM6.10335 4.6816C7.23926 3.91868 8.77357 3.14729 10.7063 2.36742L14.8769 0.58727C15.0634 0.502501 15.2669 0.45164 15.4873 0.434686C15.962 0.400779 16.3689 0.544886 16.7079 0.867007C17.047 1.17218 17.2165 1.57059 17.2165 2.06225C17.2165 2.62172 17.0979 3.03709 16.8605 3.30835C16.6401 3.56266 16.3519 3.77458 15.9959 3.94412L12.4356 5.29194C11.7405 5.5632 11.0793 5.83446 10.452 6.10572C9.84166 6.36003 9.28219 6.65672 8.77357 6.99579C8.26496 7.30096 7.9937 7.64851 7.95979 8.03845C7.9937 8.41143 8.26496 8.75898 8.77357 9.08111C9.28219 9.42018 9.84166 9.72535 10.452 9.99661C11.0793 10.2509 11.7405 10.5137 12.4356 10.785L16.4028 12.2345C16.7588 12.404 17.047 12.6244 17.2674 12.8957C17.5048 13.15 17.6234 13.5569 17.6234 14.1164C17.6234 14.608 17.4539 15.0149 17.1148 15.337C16.7757 15.6422 16.3689 15.7778 15.8942 15.7439C15.6738 15.727 15.4703 15.6761 15.2838 15.5914L10.7063 13.7095C8.77357 12.9296 7.23078 12.1582 6.07792 11.3953C4.94202 10.6154 4.36559 9.49647 4.34864 8.03845C4.36559 6.58043 4.9505 5.46148 6.10335 4.6816Z" fill="white"/>
<path id="R" d="M32.0782 14.3198C31.9764 15.337 31.417 15.888 30.3997 15.9728C29.925 15.9728 29.5097 15.8202 29.1536 15.515C28.8146 15.1929 28.645 14.7945 28.645 14.3198V2.26566C28.662 1.79096 28.84 1.40102 29.1791 1.09585C29.5181 0.773732 29.925 0.612671 30.3997 0.612671H41.0552C41.1569 0.612671 41.2586 0.621148 41.3603 0.638102H41.5129C42.6997 0.672009 43.6745 0.943269 44.4374 1.45188C45.2004 1.9605 45.7514 2.5454 46.0904 3.2066C46.4295 3.85084 46.5991 4.50356 46.5991 5.16476C46.5991 5.84291 46.4295 6.51258 46.0904 7.17378C45.7683 7.81802 45.2173 8.39445 44.4374 8.90306C43.6745 9.41167 42.6997 9.68293 41.5129 9.71684H37.0371C37.1728 10.5645 37.4525 11.1918 37.8763 11.5987C38.2832 12.0056 38.8003 12.209 39.4276 12.209H44.9206C45.3953 12.226 45.7853 12.404 46.0904 12.7431C46.4126 13.0822 46.5736 13.4891 46.5736 13.9638C46.5567 14.4215 46.3871 14.8114 46.065 15.1336C45.7598 15.4387 45.3784 15.5998 44.9206 15.6168H38.9699C37.7153 15.6337 36.5794 15.142 35.5622 14.1418C34.5449 13.1415 33.9261 11.9547 33.7057 10.5815C33.4005 9.05565 33.248 8.19948 33.248 8.01299C33.248 7.53828 33.409 7.13987 33.7311 6.81775C34.0702 6.47867 34.4771 6.30914 34.9518 6.30914H41.6655C41.9876 6.29218 42.2504 6.22437 42.4539 6.10569C42.6743 5.97006 42.8353 5.82595 42.937 5.67337C43.0388 5.50383 43.0896 5.33429 43.0896 5.16476C43.0896 4.99522 43.0388 4.83416 42.937 4.68157C42.8353 4.51204 42.6743 4.36793 42.4539 4.24925C42.2504 4.11362 41.9876 4.03733 41.6655 4.02038H32.7394C32.2986 4.03733 32.0782 4.25773 32.0782 4.68157V14.3198Z" fill="white"/>
<path id="Vector 19 (Stroke)" fill-rule="evenodd" clip-rule="evenodd" d="M23.2815 0C24.2641 0 25.0606 0.79653 25.0606 1.7791V14.2209C25.0606 15.2035 24.2641 16 23.2815 16C22.299 16 21.5024 15.2035 21.5024 14.2209V1.7791C21.5024 0.79653 22.299 0 23.2815 0Z" fill="white"/>
<path id="Vector 20 (Stroke)" fill-rule="evenodd" clip-rule="evenodd" d="M51.3479 0C52.3305 0 53.127 0.79653 53.127 1.7791V14.2209C53.127 15.2035 52.3305 16 51.3479 16C50.3654 16 49.5688 15.2035 49.5688 14.2209V1.7791C49.5688 0.79653 50.3654 0 51.3479 0Z" fill="white"/>
</g>
</g>
</svg>
