<svg width="37" height="21" viewBox="0 0 37 21" fill="none" xmlns="http://www.w3.org/2000/svg">
<g id="Frame 42">
<g id="Group 5">
<path id="K" d="M3.0967 0.128662C3.38279 0.139258 3.6265 0.245219 3.82783 0.446545C4.02915 0.637275 4.13511 0.875687 4.14571 1.16178V8.94992C4.08213 9.58568 3.73246 9.93006 3.0967 9.98304C2.80001 9.98304 2.5404 9.88767 2.31788 9.69694C2.10596 9.49562 2 9.24661 2 8.94992V1.16178C2.0106 0.865091 2.12186 0.621381 2.33378 0.430651C2.5457 0.229325 2.80001 0.128662 3.0967 0.128662ZM5.8146 2.92603C6.52454 2.44921 7.48348 1.96709 8.69144 1.47967L11.2981 0.367074C11.4146 0.314094 11.5418 0.282306 11.6795 0.271709C11.9762 0.250517 12.2305 0.340584 12.4425 0.54191C12.6544 0.73264 12.7603 0.981648 12.7603 1.28894C12.7603 1.63861 12.6862 1.89821 12.5378 2.06775C12.4001 2.22669 12.2199 2.35914 11.9974 2.4651L9.77224 3.30749C9.3378 3.47703 8.92455 3.64657 8.5325 3.81611C8.15104 3.97505 7.80137 4.16048 7.48348 4.3724C7.1656 4.56313 6.99606 4.78035 6.97487 5.02406C6.99606 5.25718 7.1656 5.4744 7.48348 5.67572C7.80137 5.88764 8.15104 6.07837 8.5325 6.24791C8.92455 6.40685 9.3378 6.57109 9.77224 6.74063L12.2517 7.6466C12.4742 7.75256 12.6544 7.89031 12.7921 8.05984C12.9405 8.21879 13.0146 8.47309 13.0146 8.82276C13.0146 9.13005 12.9087 9.38436 12.6968 9.58568C12.4848 9.77641 12.2305 9.86118 11.9338 9.83999C11.7961 9.82939 11.6689 9.7976 11.5524 9.74462L8.69144 8.56846C7.48348 8.08104 6.51924 7.59891 5.7987 7.12209C5.08876 6.63467 4.7285 5.93533 4.7179 5.02406C4.7285 4.1128 5.09406 3.41345 5.8146 2.92603Z" fill="#8897AE"/>
<path id="R" d="M22.0489 8.95001C21.9853 9.58577 21.6356 9.93015 20.9999 9.98313C20.7032 9.98313 20.4436 9.88776 20.2211 9.69703C20.0091 9.4957 19.9032 9.2467 19.9032 8.95001V1.41618C19.9138 1.11949 20.025 0.875775 20.237 0.685046C20.4489 0.48372 20.7032 0.383057 20.9999 0.383057H27.6595C27.7231 0.383057 27.7867 0.388355 27.8503 0.398951H27.9456C28.6874 0.420143 29.2966 0.589681 29.7735 0.907564C30.2503 1.22545 30.5946 1.59101 30.8066 2.00426C31.0185 2.40691 31.1245 2.81486 31.1245 3.22811C31.1245 3.65195 31.0185 4.0705 30.8066 4.48375C30.6052 4.8864 30.2609 5.24667 29.7735 5.56455C29.2966 5.88243 28.6874 6.05197 27.9456 6.07316H25.1483C25.233 6.60297 25.4079 6.99502 25.6728 7.24933C25.9271 7.50364 26.2502 7.63079 26.6423 7.63079H30.0754C30.3721 7.64139 30.6158 7.75265 30.8066 7.96457C31.0079 8.17649 31.1086 8.4308 31.1086 8.72749C31.098 9.01358 30.992 9.25729 30.7907 9.45862C30.5999 9.64935 30.3615 9.75001 30.0754 9.76061H26.3562C25.5721 9.7712 24.8622 9.46392 24.2264 8.83875C23.5906 8.21358 23.2039 7.47185 23.0661 6.61356C22.8754 5.65992 22.78 5.12481 22.78 5.00826C22.78 4.71156 22.8807 4.46256 23.082 4.26123C23.2939 4.04931 23.5482 3.94335 23.8449 3.94335H28.041C28.2423 3.93275 28.4066 3.89037 28.5337 3.81619C28.6715 3.73143 28.7721 3.64136 28.8357 3.54599C28.8993 3.44003 28.9311 3.33407 28.9311 3.22811C28.9311 3.12215 28.8993 3.02149 28.8357 2.92612C28.7721 2.82016 28.6715 2.73009 28.5337 2.65592C28.4066 2.57115 28.2423 2.52347 28.041 2.51287H22.4621C22.1866 2.52347 22.0489 2.66122 22.0489 2.92612V8.95001Z" fill="#8897AE"/>
<path id="Vector 19 (Stroke)" fill-rule="evenodd" clip-rule="evenodd" d="M16.5509 0C17.165 0 17.6629 0.497831 17.6629 1.11194V8.88806C17.6629 9.50217 17.165 10 16.5509 10C15.9368 10 15.439 9.50217 15.439 8.88806V1.11194C15.439 0.497831 15.9368 0 16.5509 0Z" fill="#8897AE"/>
<path id="Vector 20 (Stroke)" fill-rule="evenodd" clip-rule="evenodd" d="M34.0924 0C34.7065 0 35.2043 0.497831 35.2043 1.11194V8.88806C35.2043 9.50217 34.7065 10 34.0924 10C33.4783 10 32.9805 9.50217 32.9805 8.88806V1.11194C32.9805 0.497831 33.4783 0 34.0924 0Z" fill="#8897AE"/>
</g>
<g id="PAY">
<path d="M2.25508 19.9617C2.18826 20.6006 1.82077 20.9468 1.1526 21C0.840783 21 0.567946 20.9042 0.334086 20.7125C0.111362 20.5101 0 20.2599 0 19.9617V12.4217C0.0111362 12.1235 0.128066 11.8786 0.35079 11.6869C0.573514 11.4846 0.840783 11.3834 1.1526 11.3834H8.1684C9.14838 11.4153 9.88894 11.623 10.3901 12.0064C10.8912 12.3791 11.2531 12.8051 11.4758 13.2843C11.6986 13.7636 11.8099 14.2481 11.8099 14.738C11.8099 15.2492 11.6986 15.7444 11.4758 16.2236C11.2643 16.7029 10.9023 17.1342 10.3901 17.5176C9.88894 17.8903 9.24861 18.0714 8.46907 18.0607H4.25959C3.94778 18.0607 3.68608 17.9542 3.47449 17.7412C3.25177 17.5389 3.14041 17.2886 3.14041 16.9904C3.14041 16.6922 3.2462 16.442 3.45779 16.2396C3.68051 16.0266 3.94778 15.9201 4.25959 15.9201H8.5693C8.78089 15.9201 8.9535 15.8562 9.08713 15.7284C9.2319 15.59 9.3377 15.4356 9.40452 15.2652C9.47133 15.0841 9.50474 14.9031 9.50474 14.722C9.50474 14.5517 9.47133 14.3813 9.40452 14.2109C9.3377 14.0298 9.2319 13.8754 9.08713 13.7476C8.9535 13.6092 8.78089 13.5346 8.5693 13.524H2.68939C2.39985 13.5346 2.25508 13.6731 2.25508 13.9393V19.9617Z" fill="#8897AE"/>
<path d="M17.3391 18.3323C17.3391 18.0341 17.4448 17.7838 17.6564 17.5815C17.8792 17.3685 18.1464 17.262 18.4582 17.262H21.014L20.5797 16.0799C20.4015 15.6432 20.2233 15.2332 20.0451 14.8498C19.8781 14.4558 19.6832 14.099 19.4605 13.7796C19.26 13.4601 19.0318 13.2897 18.7756 13.2684C18.5084 13.2897 18.2689 13.4601 18.0573 13.7796C17.8457 14.099 17.6509 14.4558 17.4727 14.8498C17.3056 15.2332 17.133 15.6432 16.9549 16.0799L15.3679 20.2332C15.2566 20.4569 15.1118 20.6432 14.9336 20.7923C14.7666 20.9308 14.5105 21 14.1652 21C13.8423 21 13.575 20.8935 13.3634 20.6805C13.163 20.4675 13.0739 20.2119 13.0962 19.9137C13.1073 19.7753 13.1407 19.6475 13.1964 19.5304L15.0339 14.9936C15.5461 13.8009 16.0584 12.8371 16.5707 12.1022C17.0718 11.3781 17.8068 11.0106 18.7756 11C19.7333 11.0106 20.4628 11.3781 20.9639 12.1022C21.4761 12.8158 21.9884 13.7796 22.5007 14.9936L24.3382 19.5304C24.3938 19.6475 24.4272 19.7753 24.4384 19.9137C24.4606 20.2119 24.366 20.4675 24.1544 20.6805C23.954 20.8935 23.6922 21 23.3693 21C23.0018 21 22.729 20.9308 22.5508 20.7923C22.3837 20.6432 22.2445 20.4569 22.1332 20.2332L21.8158 19.4026H18.4582C18.1464 19.4026 17.8847 19.2961 17.6731 19.0831C17.4504 18.8807 17.3391 18.6305 17.3391 18.3323Z" fill="#8897AE"/>
<path d="M27.228 11.1278C27.5398 11.1278 27.8071 11.229 28.0298 11.4313C28.2525 11.623 28.3695 11.8679 28.3806 12.1661V12.4696C28.3695 12.9063 28.3973 13.311 28.4641 13.6837C28.5421 14.0458 28.7202 14.3706 28.9986 14.6581C29.2771 14.9457 29.6278 15.1001 30.051 15.1214H34.7449V12.1981C34.7449 11.8999 34.8563 11.655 35.079 11.4633C35.3129 11.2609 35.5857 11.1597 35.8975 11.1597C36.5657 11.213 36.9332 11.5591 37 12.1981V15.9042C37 16.7561 36.8775 17.5602 36.6325 18.3163C36.4098 18.9872 36.0423 19.557 35.53 20.0256C35.0289 20.4835 34.3886 20.7338 33.609 20.7764H27.5955C27.2948 20.7657 27.0387 20.6645 26.8271 20.4728C26.6266 20.2705 26.5208 20.0256 26.5097 19.738C26.5097 19.4398 26.6099 19.1842 26.8104 18.9712C27.022 18.7583 27.2837 18.6464 27.5955 18.6358H33.0411C33.4643 18.6145 33.815 18.4601 34.0935 18.1725C34.3496 17.9063 34.5222 17.6028 34.6113 17.262H29.4831C28.7035 17.2194 28.0576 16.9691 27.5454 16.5112C27.0442 16.0426 26.6823 15.4728 26.4596 14.8019C26.248 14.131 26.1366 13.4175 26.1255 12.6613V12.1661C26.1366 11.8786 26.248 11.639 26.4596 11.4473C26.6712 11.2449 26.9273 11.1384 27.228 11.1278Z" fill="#8897AE"/>
</g>
</g>
</svg>
