<svg width="46" height="46" viewBox="0 0 46 46" fill="none" xmlns="http://www.w3.org/2000/svg">
<path fill-rule="evenodd" clip-rule="evenodd" d="M22.8319 25.5935C24.1099 25.5935 25.1459 24.5575 25.1459 23.2794C25.1459 17.9983 26.1093 14.3493 27.4668 11.8201C28.8098 9.31823 30.602 7.79104 32.497 6.83153C35.9347 5.09094 39.7023 5.1662 42.1743 5.21558C42.5458 5.22301 42.8881 5.22984 43.1955 5.22984C44.4735 5.22984 45.5096 4.19381 45.5096 2.91579C45.5096 1.63778 44.4735 0.601742 43.1955 0.601742C42.9826 0.601742 42.7147 0.594492 42.3993 0.585953C40.0308 0.521841 34.9831 0.385202 30.4064 2.70254C27.7312 4.05708 25.2135 6.23237 23.3891 9.63131C21.5793 13.003 20.5178 17.4532 20.5178 23.2794C20.5178 24.5575 21.5539 25.5935 22.8319 25.5935Z" fill="#2176FF"/>
<path fill-rule="evenodd" clip-rule="evenodd" d="M43.1957 0.563957C41.9177 0.563957 40.8817 1.59999 40.8817 2.87801C40.8817 8.15918 39.9183 11.8081 38.5607 14.3373C37.2178 16.8392 35.4256 18.3664 33.5306 19.3259C30.0929 21.0665 26.3253 20.9912 23.8533 20.9419C23.4818 20.9344 23.1395 20.9276 22.8321 20.9276C21.5541 20.9276 20.518 21.9636 20.518 23.2417C20.518 24.5197 21.5541 25.5557 22.8321 25.5557C23.045 25.5557 23.3129 25.563 23.6283 25.5715C25.9967 25.6356 31.0445 25.7722 35.6212 23.4549C38.2964 22.1004 40.8141 19.9251 42.6385 16.5261C44.4483 13.1545 45.5098 8.70429 45.5098 2.87801C45.5098 1.59999 44.4737 0.563957 43.1957 0.563957Z" fill="#2176FF"/>
<path fill-rule="evenodd" clip-rule="evenodd" d="M22.8319 20.9654C21.5539 20.9654 20.5179 22.0014 20.5179 23.2794C20.5179 28.5606 19.5545 32.2096 18.197 34.7388C16.854 37.2407 15.0618 38.7678 13.1668 39.7274C9.72912 41.4679 5.96152 41.3927 3.48955 41.3433C3.11803 41.3359 2.77577 41.329 2.4683 41.329C1.19028 41.329 0.154245 42.3651 0.154245 43.6431C0.154245 44.9211 1.19028 45.9571 2.4683 45.9571C2.68123 45.9571 2.94911 45.9644 3.26449 45.9729C5.63297 46.037 10.6807 46.1737 15.2574 43.8563C17.9326 42.5018 20.4503 40.3265 22.2748 36.9276C24.0845 33.5559 25.146 29.1057 25.146 23.2794C25.146 22.0014 24.11 20.9654 22.8319 20.9654Z" fill="#2176FF"/>
<path fill-rule="evenodd" clip-rule="evenodd" d="M2.46835 45.9949C3.74636 45.9949 4.7824 44.9589 4.7824 43.6809C4.7824 38.3997 5.74574 34.7507 7.10332 32.2215C8.44625 29.7197 10.2385 28.1925 12.1335 27.233C15.5712 25.4924 19.3388 25.5676 21.8107 25.617C22.1823 25.6244 22.5245 25.6313 22.832 25.6313C24.11 25.6313 25.146 24.5952 25.146 23.3172C25.146 22.0392 24.11 21.0032 22.832 21.0032C22.6191 21.0032 22.3512 20.9959 22.0358 20.9874C19.6673 20.9233 14.6196 20.7866 10.0429 23.104C7.36764 24.4585 4.84996 26.6338 3.02553 30.0327C1.21575 33.4044 0.154297 37.8546 0.154297 43.6809C0.154297 44.9589 1.19033 45.9949 2.46835 45.9949Z" fill="#2176FF"/>
<path fill-rule="evenodd" clip-rule="evenodd" d="M2.7567 8.17419C4.00655 7.90736 5.23605 8.70427 5.50288 9.95412C6.79146 15.9901 10.0565 18.6001 13.381 19.8386C16.5418 21.0162 19.8221 20.9887 22.0782 20.9697C22.3444 20.9675 22.5963 20.9654 22.8321 20.9654C24.1101 20.9654 25.1462 22.0014 25.1462 23.2794C25.1462 24.5574 24.1101 25.5935 22.8321 25.5935C22.6325 25.5935 22.4038 25.5962 22.1492 25.5992C19.9418 25.6255 15.7896 25.6748 11.7653 24.1756C7.06778 22.4255 2.61931 18.6144 0.976765 10.9204C0.709943 9.67052 1.50685 8.44101 2.7567 8.17419Z" fill="#2176FF"/>
<path fill-rule="evenodd" clip-rule="evenodd" d="M43.1957 45.9949C41.9177 45.9949 40.8817 44.9589 40.8817 43.6809C40.8817 38.3997 39.9183 34.7507 38.5607 32.2215C37.2178 29.7197 35.4256 28.1925 33.5306 27.233C30.0929 25.4924 26.3253 25.5676 23.8533 25.617C23.4818 25.6244 23.1395 25.6313 22.8321 25.6313C21.5541 25.6313 20.518 24.5952 20.518 23.3172C20.518 22.0392 21.5541 21.0032 22.8321 21.0032C23.045 21.0032 23.3129 20.9959 23.6283 20.9874C25.9967 20.9233 31.0445 20.7866 35.6212 23.104C38.2964 24.4585 40.8141 26.6338 42.6385 30.0327C44.4483 33.4044 45.5098 37.8546 45.5098 43.6809C45.5098 44.9589 44.4737 45.9949 43.1957 45.9949Z" fill="#2176FF"/>
<circle cx="2.46832" cy="2.87801" r="2.46832" fill="#2176FF"/>
</svg>
