<svg width="115" height="115" viewBox="0 0 115 115" fill="none" xmlns="http://www.w3.org/2000/svg">
<path fill-rule="evenodd" clip-rule="evenodd" d="M57.9441 63.3611C61.1595 63.3611 63.7661 60.7545 63.7661 57.5391C63.7661 44.252 66.1898 35.0713 69.6054 28.708C72.9842 22.4134 77.4933 18.5711 82.2611 16.157C90.9101 11.7778 100.389 11.9671 106.609 12.0914C107.543 12.11 108.404 12.1272 109.178 12.1272C112.393 12.1272 115 9.52062 115 6.3052C115 3.08978 112.393 0.48317 109.178 0.48317C108.642 0.48317 107.968 0.464928 107.175 0.443447C101.216 0.282143 88.516 -0.0616341 77.0012 5.76866C70.2705 9.17663 63.9361 14.6495 59.3459 23.2011C54.7926 31.684 52.122 42.8805 52.122 57.5391C52.122 60.7545 54.7287 63.3611 57.9441 63.3611Z" fill="white"/>
<path fill-rule="evenodd" clip-rule="evenodd" d="M109.178 0.388123C105.963 0.388123 103.356 2.99474 103.356 6.21016C103.356 19.4973 100.932 28.6779 97.5166 35.0412C94.1379 41.3358 89.6287 45.1782 84.8609 47.5923C76.2119 51.9715 66.7328 51.7821 60.5135 51.6579C59.5788 51.6392 58.7177 51.622 57.9441 51.622C54.7287 51.622 52.122 54.2286 52.122 57.444C52.122 60.6595 54.7287 63.2661 57.9441 63.2661C58.4798 63.2661 59.1538 63.2843 59.9473 63.3058C65.9062 63.4671 78.606 63.8109 90.1209 57.9806C96.8516 54.5726 103.186 49.0997 107.776 40.5482C112.329 32.0653 115 20.8688 115 6.21016C115 2.99474 112.393 0.388123 109.178 0.388123Z" fill="white"/>
<path fill-rule="evenodd" clip-rule="evenodd" d="M57.944 51.7171C54.7286 51.7171 52.122 54.3237 52.122 57.5391C52.122 70.8263 49.6983 80.0069 46.2827 86.3702C42.904 92.6648 38.3948 96.5072 33.627 98.9212C24.978 103.3 15.4989 103.111 9.27958 102.987C8.34484 102.968 7.48374 102.951 6.71016 102.951C3.49474 102.951 0.888123 105.558 0.888123 108.773C0.888123 111.988 3.49474 114.595 6.71016 114.595C7.24589 114.595 7.91985 114.613 8.71334 114.635C14.6723 114.796 27.3721 115.14 38.8869 109.31C45.6177 105.902 51.952 100.429 56.5422 91.8771C61.0955 83.3942 63.7661 72.1977 63.7661 57.5391C63.7661 54.3237 61.1595 51.7171 57.944 51.7171Z" fill="white"/>
<path fill-rule="evenodd" clip-rule="evenodd" d="M6.71016 114.69C9.92558 114.69 12.5322 112.083 12.5322 108.868C12.5322 95.5809 14.9559 86.4003 18.3715 80.037C21.7502 73.7424 26.2594 69.9 31.0272 67.486C39.6762 63.1067 49.1553 63.2961 55.3746 63.4203C56.3094 63.439 57.1705 63.4562 57.944 63.4562C61.1595 63.4562 63.7661 60.8496 63.7661 57.6342C63.7661 54.4187 61.1595 51.8121 57.944 51.8121C57.4083 51.8121 56.7344 51.7939 55.9409 51.7724C49.9819 51.6111 37.2821 51.2673 25.7673 57.0976C19.0365 60.5056 12.7022 65.9785 8.11199 74.5301C3.55867 83.0129 0.888123 94.2094 0.888123 108.868C0.888123 112.083 3.49474 114.69 6.71016 114.69Z" fill="white"/>
<path fill-rule="evenodd" clip-rule="evenodd" d="M7.43529 19.5351C10.5799 18.8638 13.6732 20.8687 14.3445 24.0133C17.5866 39.1996 25.8012 45.7662 34.1655 48.8823C42.1178 51.8448 50.3709 51.7756 56.0471 51.728C56.7169 51.7224 57.3507 51.7171 57.944 51.7171C61.1594 51.7171 63.7661 54.3237 63.7661 57.5391C63.7661 60.7545 61.1594 63.3611 57.944 63.3611C57.4417 63.3611 56.8663 63.368 56.2259 63.3756C50.6721 63.4416 40.2254 63.5657 30.1005 59.7937C18.2818 55.3907 7.08963 45.8021 2.95708 26.4443C2.28577 23.2998 4.29073 20.2064 7.43529 19.5351Z" fill="white"/>
<path fill-rule="evenodd" clip-rule="evenodd" d="M109.178 114.69C105.963 114.69 103.356 112.083 103.356 108.868C103.356 95.5809 100.932 86.4003 97.5166 80.037C94.1379 73.7424 89.6287 69.9 84.8609 67.486C76.2119 63.1067 66.7328 63.2961 60.5135 63.4203C59.5788 63.439 58.7177 63.4562 57.9441 63.4562C54.7287 63.4562 52.122 60.8496 52.122 57.6342C52.122 54.4187 54.7287 51.8121 57.9441 51.8121C58.4798 51.8121 59.1538 51.7939 59.9473 51.7724C65.9062 51.6111 78.606 51.2673 90.1209 57.0976C96.8516 60.5056 103.186 65.9785 107.776 74.5301C112.329 83.0129 115 94.2094 115 108.868C115 112.083 112.393 114.69 109.178 114.69Z" fill="white"/>
<circle cx="6.71017" cy="6.21017" r="6.21017" fill="white"/>
</svg>
