<svg width="224" height="68" viewBox="0 0 224 68" fill="none" xmlns="http://www.w3.org/2000/svg">
<path d="M7.3972 1C9.32691 1.07147 10.9707 1.78618 12.3287 3.14412C13.6866 4.43059 14.4013 6.03867 14.4728 7.96838V60.4992C14.044 64.7875 11.6854 67.1103 7.3972 67.4676C5.39603 67.4676 3.645 66.8244 2.14412 65.5379C0.714706 64.18 0 62.5004 0 60.4992V7.96838C0.0714706 5.9672 0.821911 4.32338 2.25132 3.03691C3.68073 1.67897 5.39603 1 7.3972 1ZM25.7294 19.8682C30.5179 16.6521 36.986 13.4001 45.1337 10.1125L62.7154 2.60809C63.5016 2.25073 64.3592 2.03632 65.2884 1.96485C67.2895 1.82191 69.0048 2.42941 70.4342 3.78735C71.8636 5.07382 72.5784 6.75338 72.5784 8.82603C72.5784 11.1846 72.0781 12.9356 71.0775 14.0791C70.1484 15.1512 68.9334 16.0446 67.4325 16.7593L52.4237 22.4412C49.4934 23.5847 46.706 24.7282 44.0616 25.8718C41.4887 26.9438 39.1301 28.1945 36.986 29.624C34.8419 30.9104 33.6984 32.3756 33.5554 34.0194C33.6984 35.5918 34.8419 37.0569 36.986 38.4148C39.1301 39.8442 41.4887 41.1307 44.0616 42.2743C46.706 43.3463 49.4934 44.4541 52.4237 45.5976L69.1478 51.7084C70.6487 52.4231 71.8636 53.3522 72.7928 54.4957C73.7934 55.5678 74.2936 57.2831 74.2936 59.6416C74.2936 61.7142 73.5789 63.4295 72.1495 64.7875C70.7201 66.0739 69.0048 66.6457 67.0036 66.5028C66.0745 66.4313 65.2169 66.2169 64.4307 65.8595L45.1337 57.9263C36.986 54.6387 30.4822 51.3867 25.6222 48.1706C20.8337 44.8829 18.4037 40.1659 18.3322 34.0194C18.4037 27.8729 20.8694 23.1559 25.7294 19.8682Z" fill="black"/>
<path d="M135.229 60.4992C134.801 64.7875 132.442 67.1103 128.154 67.4676C126.153 67.4676 124.402 66.8244 122.901 65.5379C121.471 64.18 120.757 62.5004 120.757 60.4992V9.68367C120.828 7.6825 121.579 6.03867 123.008 4.7522C124.437 3.39426 126.153 2.71529 128.154 2.71529H173.073C173.502 2.71529 173.931 2.75103 174.36 2.8225H175.003C180.006 2.96544 184.115 4.10897 187.331 6.25309C190.548 8.3972 192.87 10.8629 194.3 13.6503C195.729 16.3662 196.444 19.1178 196.444 21.9051C196.444 24.764 195.729 27.587 194.3 30.3744C192.942 33.0903 190.619 35.5203 187.331 37.6644C184.115 39.8085 180.006 40.952 175.003 41.095H156.135C156.706 44.6685 157.886 47.3129 159.672 49.0282C161.388 50.7435 163.567 51.6012 166.212 51.6012H189.368C191.37 51.6726 193.013 52.4231 194.3 53.8525C195.658 55.2819 196.337 56.9972 196.337 58.9984C196.265 60.9281 195.551 62.5719 194.193 63.9298C192.906 65.2163 191.298 65.8953 189.368 65.9667H164.282C158.993 66.0382 154.205 63.9656 149.917 59.7488C145.628 55.532 143.02 50.5291 142.091 44.74C140.804 38.3076 140.161 34.6984 140.161 33.9122C140.161 31.911 140.84 30.2315 142.198 28.8735C143.627 27.4441 145.342 26.7294 147.344 26.7294H175.646C177.004 26.6579 178.112 26.372 178.969 25.8718C179.898 25.3 180.577 24.6925 181.006 24.0493C181.435 23.3346 181.65 22.6198 181.65 21.9051C181.65 21.1904 181.435 20.5115 181.006 19.8682C180.577 19.1535 179.898 18.546 178.969 18.0457C178.112 17.474 177.004 17.1523 175.646 17.0809H138.017C136.158 17.1523 135.229 18.0815 135.229 19.8682V60.4992Z" fill="black"/>
<path d="M98.1458 7.63247V60.0823" stroke="black" stroke-width="15" stroke-linecap="round"/>
<path d="M216.463 7.63247V60.0823" stroke="black" stroke-width="15" stroke-linecap="round"/>
</svg>
