<svg width="358" height="358" viewBox="0 0 358 358" fill="none" xmlns="http://www.w3.org/2000/svg">
<path d="M177.776 336.763C263.862 336.763 333.649 295.353 333.649 244.271C333.649 193.188 263.862 151.778 177.776 151.778C91.6893 151.778 21.9025 193.188 21.9025 244.271C21.9025 295.353 91.6893 336.763 177.776 336.763Z" fill="#F5F5F5"/>
<path d="M211.37 220.757L117.825 274.794C117.263 275.08 116.641 275.229 116.01 275.229C115.379 275.229 114.757 275.08 114.195 274.794L103.104 268.679C102.102 268.099 102.102 267.161 103.104 266.588L196.678 212.545C197.24 212.259 197.862 212.109 198.493 212.109C199.124 212.109 199.746 212.259 200.308 212.545L211.406 218.659C212.373 219.275 212.373 220.177 211.37 220.757Z" fill="#E0E0E0"/>
<path d="M238.636 306.67C259.012 306.67 275.531 297.694 275.531 286.622C275.531 275.55 259.012 266.574 238.636 266.574C218.259 266.574 201.74 275.55 201.74 286.622C201.74 297.694 218.259 306.67 238.636 306.67Z" fill="#E0E0E0"/>
<path d="M288.462 234.676C297.114 234.676 304.128 230.865 304.128 226.163C304.128 221.461 297.114 217.65 288.462 217.65C279.81 217.65 272.796 221.461 272.796 226.163C272.796 230.865 279.81 234.676 288.462 234.676Z" fill="#E0E0E0"/>
<path d="M63.8744 244.271C77.6355 244.271 88.7912 238.209 88.7912 230.731C88.7912 223.253 77.6355 217.191 63.8744 217.191C50.1132 217.191 38.9576 223.253 38.9576 230.731C38.9576 238.209 50.1132 244.271 63.8744 244.271Z" fill="#E0E0E0"/>
<path d="M267.705 46.5973L272.531 49.404V45.5519C272.531 43.3252 274.35 42.559 276.576 43.8407L276.741 43.9409C277.765 44.5542 278.647 45.3794 279.326 46.361C279.448 42.6163 282.605 41.349 286.486 43.5686L286.779 43.7404C290.71 46.0102 293.939 51.0866 293.939 55.0103V61.712L298.393 64.2896C300.283 65.378 301.83 67.8124 301.83 69.7026C301.83 71.5928 300.283 72.2372 298.393 71.1346L292.465 67.7121L280.844 61.0032L267.705 53.4566C265.815 52.3682 264.268 49.9338 264.268 48.0436C264.268 46.1534 265.815 45.509 267.705 46.5973Z" fill="#E0E0E0"/>
<path d="M301.844 39.4158L305.174 41.3347V38.664C305.174 37.1318 306.434 36.6019 307.966 37.4898L308.08 37.5542C308.787 37.9801 309.394 38.5512 309.863 39.2296C309.949 36.6449 312.126 35.7714 314.782 37.3036L314.983 37.4182C317.696 38.9862 319.916 42.4803 319.916 45.1939V49.8121L322.988 51.5878C323.645 51.9836 324.202 52.5276 324.612 53.1766C325.022 53.8255 325.275 54.5613 325.35 55.3253C325.35 56.6284 324.291 57.0724 322.988 56.3206L318.892 53.9649L310.873 49.404L301.844 44.1915C301.186 43.7973 300.63 43.2546 300.22 42.6068C299.81 41.9591 299.557 41.2242 299.481 40.4612C299.481 39.1151 300.541 38.664 301.844 39.4158Z" fill="#E0E0E0"/>
<path d="M56.385 144.747C57.6715 144.619 58.968 144.853 60.1297 145.42C62.3779 146.508 64.2395 148.241 66.2372 149.716C68.2348 151.191 70.5332 152.58 73.0105 152.644C75.4879 152.708 78.2015 151.169 78.6526 148.713C78.6809 148.279 78.7902 147.854 78.9748 147.46C79.2227 147.145 79.5673 146.921 79.9555 146.821C80.3437 146.721 80.7539 146.752 81.1228 146.909C81.8455 147.236 82.5338 147.634 83.1777 148.097C85.7052 149.587 88.9057 149.25 91.7697 148.813C94.1827 148.463 97.2328 147.381 97.2257 144.954C97.2257 143.365 95.7937 142.183 94.734 141.031C93.6743 139.878 92.7435 138.023 93.7459 136.785C94.1305 136.366 94.6278 136.068 95.1779 135.925C98.1994 134.945 101.901 136.255 104.486 134.365C106.376 132.933 106.82 130.069 105.825 127.971C105.273 126.927 104.5 126.015 103.56 125.299C102.621 124.583 101.537 124.08 100.383 123.825C98.3569 123.31 95.7794 123.073 95.0204 121.119C94.3617 119.407 95.6934 117.539 97.1684 116.508C98.6433 115.476 100.483 114.718 101.529 113.214C102.042 112.41 102.327 111.481 102.352 110.527C102.378 109.574 102.142 108.631 101.672 107.801C101.183 106.985 100.523 106.284 99.7387 105.745C98.9542 105.206 98.0629 104.843 97.1254 104.679C96.1806 104.609 95.2503 104.406 94.3617 104.078C93.5168 103.648 92.8795 102.581 93.3378 101.751C93.6099 101.25 94.1898 100.992 94.5192 100.526C95.1564 99.6314 94.6051 98.2996 93.7029 97.6624C92.7387 97.1174 91.6986 96.7192 90.617 96.481C88.426 95.765 86.321 93.617 86.9511 91.4117C87.5811 89.2064 90.7745 88.3616 91.7053 86.142C92.5359 84.1873 91.2256 81.8961 89.4642 80.7004C87.7029 79.5046 85.5119 79.0536 83.593 78.1442C81.6741 77.2349 79.8125 75.6311 79.655 73.5046C79.4975 71.378 81.087 69.5021 82.4546 67.7766C83.8221 66.051 84.9105 63.6309 83.7505 61.7908C82.5906 59.9507 80.1705 59.9149 78.1586 59.2776C76.9428 58.8856 75.8237 58.2409 74.8748 57.3857C73.9258 56.5305 73.1685 55.4843 72.6525 54.3158C72.1227 53.0842 71.8649 51.7453 71.2205 50.5711C69.273 46.9123 64.261 45.3156 60.4089 45.7596C58.3898 46.0316 57.7168 46.7476 56.7359 48.2512C56.1702 49.1319 55.5903 49.5758 55.3898 50.7859C55.0962 52.5544 56.0342 54.7955 54.3659 56.1487C51.8313 58.1965 47.9219 55.4327 48.0937 60.0223C48.0861 61.9637 48.3734 63.8951 48.9458 65.7503C49.6618 67.6763 51.015 68.5069 49.8694 70.6692C48.3801 73.4616 47.4064 73.4473 44.4278 73.4401C42.2798 73.4401 40.4683 73.3184 38.886 74.958C36.1007 77.822 37.7547 80.4354 40.2249 82.655C43.0388 85.1754 41.5495 86.2852 41.1843 89.5501C41.0053 91.1253 41.3633 91.605 39.96 92.6504C37.2965 94.6265 35.8143 93.9607 36.559 97.8271C37.275 101.357 36.1867 100.147 33.1293 101.464C30.4157 102.631 28.6257 105.553 26.4276 107.371C24.9956 108.546 22.8476 109.448 22.733 111.503C22.4753 115.441 27.3727 114.581 29.6997 115.519C33.5017 117.059 32.3704 122.042 29.399 123.911C26.2557 125.88 21.6733 126.617 21.4227 131.121C21.2294 134.579 23.1913 135.345 25.8763 136.498C28.0243 137.422 27.745 137.694 27.7379 140.25C27.7379 145.405 29.4706 146.866 34.5542 146.021C35.9432 145.792 38.0697 145.205 39.4588 145.62C41.3991 146.207 40.7476 146.687 40.7977 148.312C40.9409 152.472 45.8097 151.298 47.836 149.515C50.1988 147.446 53.1702 145.062 56.385 144.747Z" fill="#4D91FF"/>
<path opacity="0.15" d="M95.1278 135.968C97.4476 135.217 100.14 135.804 102.46 135.252C101.107 134.938 99.7336 134.722 98.3498 134.608C96.7102 134.537 95.074 134.813 93.5488 135.419C92.0236 136.025 90.6438 136.947 89.5 138.124C90.7127 139.623 91.3455 141.509 91.2829 143.436C85.5549 144.997 79.8269 137.279 74.3709 139.627C74.7075 142.412 74.3709 146.157 71.6716 146.787C70.0749 147.145 68.4711 146.071 67.483 144.775C66.4949 143.479 65.8863 141.911 64.8911 140.608C63.4974 138.922 61.527 137.814 59.3625 137.5C57.198 137.185 54.9936 137.685 53.1773 138.904C51.6881 139.985 49.8265 141.618 48.3443 140.536C46.7477 139.384 47.7214 136.24 45.9601 135.374C44.7858 134.787 43.1462 135.711 42.1653 134.851C41.7999 134.454 41.565 133.954 41.4922 133.419C40.7762 130.477 40.1891 127.076 42.0435 124.684C43.6903 122.536 47.1773 121.247 46.8049 118.584C46.4827 116.307 43.5901 115.613 41.2989 115.348C39.0077 115.083 36.1222 114.009 36.2368 111.71C36.3513 109.412 39.4087 108.367 39.8597 106.154C40.0459 105.209 39.7309 104.157 40.1605 103.29C40.812 101.994 42.6736 101.944 43.7405 100.985C45.6951 99.2519 44.1772 96.0156 44.7285 93.4666C45.1223 91.6623 46.583 90.2446 47.0627 88.4546C48.0365 84.8746 44.793 81.5094 41.4063 80.056C40.0691 79.5864 38.7832 78.9819 37.5685 78.2516L37.4468 78.1586C37.5256 79.7696 38.7213 81.266 40.2249 82.6121C43.0388 85.1324 41.5495 86.2422 41.1843 89.5072C41.0053 91.0824 41.3633 91.5621 39.96 92.6074C37.2965 94.5836 35.8143 93.9177 36.559 97.7841C37.275 101.314 36.1867 100.104 33.1293 101.421C30.4157 102.588 28.6257 105.51 26.4276 107.328C24.9956 108.503 22.8476 109.405 22.733 111.46C22.4753 115.398 27.3727 114.539 29.6997 115.476C33.5017 117.016 32.3704 121.999 29.399 123.868C26.2557 125.837 21.6733 126.574 21.4227 131.078C21.2294 134.536 23.1913 135.303 25.8763 136.455C28.0243 137.379 27.745 137.651 27.7379 140.207C27.7379 145.362 29.4706 146.823 34.5542 145.978C35.9432 145.749 38.0697 145.162 39.4588 145.577C41.3991 146.164 40.7476 146.644 40.7977 148.269C40.9409 152.429 45.8097 151.255 47.836 149.472C50.1988 147.424 53.1702 145.04 56.3779 144.725C57.6643 144.598 58.9608 144.831 60.1225 145.398C62.3708 146.486 64.2324 148.219 66.23 149.694C68.2277 151.169 70.526 152.558 73.0034 152.623C75.4807 152.687 78.1944 151.148 78.6455 148.692C78.6738 148.258 78.783 147.833 78.9677 147.439C79.2156 147.124 79.5602 146.899 79.9484 146.8C80.3366 146.7 80.7468 146.731 81.1157 146.887C81.8383 147.215 82.5267 147.613 83.1706 148.076C85.6981 149.565 88.8986 149.229 91.7626 148.792C94.1755 148.441 97.2257 147.36 97.2185 144.933C97.2185 143.343 95.7865 142.162 94.7268 141.009C93.6672 139.856 92.7363 138.002 93.7387 136.763C94.1206 136.376 94.6009 136.102 95.1278 135.968Z" fill="black"/>
<path d="M46.361 96.7244L62.0128 127.756V113.479L63.6095 76.3686L65.9221 113.479V123.08L83.1061 93.0084L65.9221 129.925V233.201C65.904 233.372 65.8416 233.535 65.7412 233.675C65.6407 233.814 65.5057 233.925 65.3493 233.996C64.9205 234.211 64.4473 234.324 63.9675 234.324C63.4876 234.324 63.0144 234.211 62.5856 233.996C62.4275 233.927 62.2909 233.817 62.1901 233.677C62.0893 233.537 62.0281 233.373 62.0128 233.201V135.675L46.361 96.7244Z" fill="#455A64"/>
<path d="M291.813 102.044C287.517 99.5598 283.579 99.4667 280.765 101.328L275.288 104.536C271.908 106.126 269.81 110.171 269.911 116.064V118.462C270.075 128.35 284.173 155.694 285.92 159.067L285.605 159.403L285.985 159.188L286.099 159.403C286.099 159.403 286.436 159.117 287.009 158.594L291.813 155.823C291.813 155.823 307.322 143.042 307.322 132.539V130.14C307.322 119.572 300.376 106.992 291.813 102.044ZM285.369 114.581C287.649 116.019 289.559 117.973 290.945 120.285C292.331 122.597 293.153 125.203 293.345 127.892C293.354 128.453 293.313 129.014 293.224 129.567C292.727 129.393 292.247 129.172 291.792 128.909C289.539 127.435 287.666 125.45 286.325 123.116C284.984 120.782 284.212 118.165 284.073 115.476H284.03C284.033 114.997 284.073 114.518 284.152 114.044C284.566 114.19 284.97 114.362 285.362 114.56L285.369 114.581Z" fill="#4D91FF"/>
<path opacity="0.2" d="M269.932 118.426C270.111 128.973 286.121 159.367 286.121 159.367C286.121 159.367 301.436 146.365 301.236 135.825V133.427C301.057 122.88 293.904 110.436 285.254 105.631C276.605 100.827 269.732 105.474 269.911 116.028L269.932 118.426ZM277.701 119.193C277.622 114.281 281.066 112.183 285.383 114.581C287.664 116.019 289.574 117.973 290.959 120.285C292.345 122.597 293.167 125.203 293.36 127.892C293.445 132.804 290.001 134.902 285.677 132.503C283.393 131.068 281.478 129.115 280.089 126.803C278.699 124.49 277.874 121.883 277.679 119.193H277.701Z" fill="black"/>
<path d="M196.778 41.6855L122.243 85.0751C121.152 85.7104 120.248 86.6208 119.62 87.7152C118.992 88.8095 118.661 90.0496 118.663 91.3115V266.288C118.662 266.754 118.784 267.213 119.018 267.618C119.251 268.022 119.587 268.357 119.992 268.59C120.397 268.823 120.856 268.944 121.323 268.942C121.79 268.94 122.248 268.815 122.651 268.579L196.306 225.705C197.424 225.054 198.352 224.121 198.997 222.999C199.641 221.877 199.98 220.605 199.979 219.311V43.5256C199.973 43.1534 199.871 42.7891 199.682 42.4683C199.493 42.1475 199.224 41.8812 198.902 41.6957C198.579 41.5101 198.214 41.4116 197.841 41.4099C197.469 41.4081 197.103 41.5031 196.778 41.6855Z" fill="#455A64"/>
<path d="M199.972 43.5185V43.7548C199.972 43.6187 199.972 43.4827 199.972 43.3466C199.979 43.4037 199.979 43.4614 199.972 43.5185Z" fill="#37474F"/>
<path d="M194.552 66.588L124.52 107.328C123.709 107.8 123.037 108.476 122.57 109.289C122.102 110.102 121.856 111.023 121.856 111.961V242.373C121.856 242.602 121.916 242.826 122.031 243.024C122.146 243.222 122.311 243.386 122.509 243.499C122.708 243.613 122.933 243.672 123.161 243.67C123.39 243.668 123.614 243.606 123.811 243.49L194.451 202.413C195.079 202.051 195.601 201.529 195.963 200.9C196.325 200.271 196.515 199.559 196.513 198.833V67.7408C196.518 67.5089 196.462 67.2799 196.349 67.0774C196.236 66.8749 196.071 66.7061 195.871 66.5887C195.671 66.4712 195.443 66.4092 195.211 66.4091C194.979 66.4089 194.752 66.4707 194.552 66.588Z" fill="white"/>
<path d="M122.636 268.579C122.525 268.647 122.408 268.705 122.286 268.751C122.436 268.693 122.522 268.65 122.636 268.579Z" fill="#37474F"/>
<path d="M199.929 43.0674C199.853 42.7422 199.702 42.4391 199.489 42.1822C199.276 41.9253 199.005 41.7217 198.7 41.5876C198.394 41.4534 198.061 41.3924 197.727 41.4094C197.394 41.4265 197.069 41.521 196.778 41.6855L122.25 85.0751C121.164 85.7131 120.262 86.623 119.634 87.7153C119.007 88.8076 118.674 90.0445 118.67 91.3043V266.288C118.672 266.72 118.779 267.145 118.982 267.527C119.185 267.908 119.478 268.235 119.835 268.478C120.192 268.721 120.603 268.874 121.033 268.922C121.462 268.971 121.897 268.915 122.3 268.758C118.169 270.791 112.813 267.419 112.813 267.419C111.413 266.686 110.245 265.579 109.437 264.222C108.629 262.864 108.214 261.309 108.238 259.729V84.7529C108.24 83.4918 108.572 82.2531 109.2 81.1593C109.827 80.0655 110.73 79.1546 111.818 78.5166L186.346 35.1341C186.346 35.1341 189.389 33.2081 194.695 36.5661C194.695 36.5661 199.427 39.0936 199.929 43.0674Z" fill="#263238"/>
<path d="M199.929 43.0674C199.853 42.7422 199.702 42.4391 199.489 42.1822C199.276 41.9253 199.005 41.7217 198.7 41.5876C198.394 41.4534 198.061 41.3924 197.727 41.4094C197.394 41.4265 197.069 41.521 196.778 41.6855L122.25 85.0751C121.244 85.6559 120.396 86.4746 119.78 87.4594L109.161 81.2016C109.788 80.0878 110.7 79.1611 111.803 78.5166L186.346 35.1341C186.346 35.1341 189.389 33.2081 194.695 36.5661C194.695 36.5661 199.428 39.0936 199.929 43.0674Z" fill="#37474F"/>
<path d="M149.501 84.9248C149.413 85.828 149.114 86.6978 148.627 87.464C148.141 88.2302 147.481 88.8713 146.701 89.3353C145.155 90.2303 143.902 89.7005 143.902 88.1539C143.991 87.2501 144.29 86.3797 144.777 85.6125C145.263 84.8453 145.922 84.2027 146.701 83.7362C148.248 82.8484 149.501 83.3782 149.501 84.9248Z" fill="#37474F"/>
<path d="M164.215 233.108C164.215 235.893 161.959 239.445 159.203 241.056C156.446 242.667 154.191 241.707 154.191 238.908C154.191 236.108 156.446 232.571 159.203 230.967C161.959 229.363 164.215 230.33 164.215 233.108Z" fill="#37474F"/>
<path d="M110.801 114.768C110.876 115.55 111.135 116.304 111.555 116.968C111.975 117.632 112.546 118.188 113.221 118.591C114.56 119.364 115.648 118.906 115.648 117.567C115.572 116.784 115.313 116.03 114.891 115.366C114.47 114.701 113.897 114.146 113.221 113.744C111.882 112.97 110.801 113.429 110.801 114.768Z" fill="#455A64"/>
<path d="M110.801 131.107C110.876 131.889 111.135 132.643 111.555 133.307C111.975 133.971 112.546 134.527 113.221 134.93C114.56 135.703 115.648 135.245 115.648 133.906C115.572 133.123 115.313 132.369 114.891 131.705C114.47 131.041 113.897 130.485 113.221 130.083C111.882 129.31 110.801 129.768 110.801 131.107Z" fill="#455A64"/>
<path d="M160.47 70.5546C160.43 70.9737 160.291 71.3773 160.066 71.733C159.841 72.0888 159.535 72.3866 159.174 72.6024C158.458 73.0177 157.878 72.7742 157.878 72.0582C157.919 71.6395 158.058 71.2363 158.283 70.8807C158.508 70.5252 158.813 70.2272 159.174 70.0105C159.89 69.5952 160.47 69.8386 160.47 70.5546Z" fill="#37474F"/>
<path d="M154.942 83.8508L172.398 73.6907C172.86 73.421 173.243 73.0352 173.509 72.5717C173.775 72.1083 173.916 71.5832 173.916 71.0487C173.917 70.8112 173.855 70.5777 173.737 70.3719C173.619 70.1661 173.448 69.9952 173.242 69.8767C173.036 69.7582 172.803 69.6962 172.565 69.6971C172.328 69.6979 172.095 69.7616 171.89 69.8816L154.427 80.0416C153.965 80.3114 153.583 80.6972 153.316 81.1606C153.05 81.6241 152.91 82.1492 152.909 82.6837C152.909 82.9213 152.972 83.1547 153.092 83.3602C153.211 83.5658 153.382 83.7363 153.589 83.8546C153.795 83.9729 154.028 84.0348 154.266 84.0341C154.504 84.0335 154.737 83.9702 154.942 83.8508Z" fill="#37474F"/>
<path d="M142.19 97.0538V129.381C142.192 130.837 141.711 132.252 140.823 133.405L121.863 158.172V111.961C121.861 111.024 122.105 110.102 122.571 109.289C123.037 108.476 123.709 107.8 124.52 107.328L142.19 97.0538Z" fill="#E0E0E0"/>
<path d="M148.835 129.152L169.692 117.052C170.361 116.661 170.916 116.101 171.301 115.429C171.687 114.757 171.89 113.996 171.89 113.221V79.8054L146.873 94.3545V128.006C146.876 128.235 146.938 128.459 147.053 128.657C147.168 128.855 147.332 129.019 147.53 129.135C147.727 129.25 147.951 129.312 148.18 129.315C148.409 129.318 148.634 129.262 148.835 129.152Z" fill="#E0E0E0"/>
<path d="M171.84 123.496V142.778C171.839 143.18 171.733 143.576 171.532 143.925C171.331 144.274 171.042 144.565 170.694 144.768L157.448 152.508C157.145 152.686 156.894 152.941 156.72 153.246C156.545 153.551 156.453 153.896 156.453 154.248V166.792C156.451 167.217 156.339 167.634 156.127 168.002C155.914 168.37 155.61 168.676 155.243 168.89L147.933 173.136C147.822 173.205 147.695 173.243 147.564 173.245C147.434 173.247 147.305 173.214 147.193 173.148C147.08 173.083 146.987 172.987 146.925 172.873C146.862 172.758 146.832 172.629 146.837 172.499V138.188C146.836 137.654 146.976 137.129 147.243 136.667C147.509 136.204 147.893 135.82 148.355 135.553L170.408 122.679C170.552 122.593 170.716 122.546 170.884 122.544C171.052 122.542 171.217 122.585 171.363 122.668C171.509 122.752 171.63 122.872 171.714 123.017C171.798 123.163 171.841 123.328 171.84 123.496Z" fill="#E0E0E0"/>
<path d="M160.062 154.262L171.067 147.854C171.147 147.808 171.239 147.783 171.332 147.783C171.424 147.783 171.516 147.807 171.596 147.854C171.677 147.9 171.744 147.967 171.79 148.048C171.837 148.128 171.861 148.219 171.862 148.312V158.107C171.861 158.439 171.774 158.765 171.608 159.053C171.442 159.341 171.204 159.58 170.916 159.747L160.176 165.997C160.09 166.046 159.992 166.071 159.893 166.07C159.793 166.069 159.696 166.043 159.61 165.993C159.524 165.943 159.452 165.872 159.402 165.786C159.352 165.7 159.325 165.603 159.324 165.503V155.572C159.323 155.309 159.39 155.049 159.519 154.82C159.649 154.59 159.836 154.398 160.062 154.262Z" fill="#E0E0E0"/>
<path d="M160.062 173.1L171.067 166.692C171.147 166.646 171.237 166.621 171.33 166.621C171.422 166.621 171.513 166.644 171.593 166.69C171.674 166.736 171.741 166.801 171.788 166.881C171.835 166.96 171.86 167.051 171.861 167.143V176.938C171.863 177.27 171.776 177.597 171.61 177.885C171.444 178.173 171.205 178.412 170.916 178.578L160.176 184.828C160.09 184.879 159.992 184.906 159.891 184.906C159.791 184.906 159.693 184.88 159.606 184.83C159.52 184.78 159.448 184.707 159.398 184.62C159.349 184.533 159.323 184.434 159.324 184.334V174.41C159.322 174.147 159.389 173.887 159.518 173.657C159.648 173.427 159.835 173.235 160.062 173.1Z" fill="#E0E0E0"/>
<path d="M160.062 188.108L171.067 181.664C171.147 181.617 171.239 181.593 171.331 181.593C171.424 181.593 171.516 181.617 171.596 181.663C171.677 181.71 171.744 181.777 171.79 181.857C171.837 181.938 171.861 182.029 171.861 182.122V197.874C171.861 198.206 171.774 198.532 171.608 198.82C171.442 199.108 171.204 199.347 170.916 199.513L160.176 205.764C160.09 205.815 159.992 205.842 159.891 205.842C159.791 205.842 159.693 205.816 159.606 205.766C159.52 205.715 159.448 205.643 159.398 205.556C159.349 205.469 159.323 205.37 159.324 205.27V189.418C159.323 189.154 159.39 188.895 159.519 188.665C159.649 188.435 159.836 188.243 160.062 188.108Z" fill="#E0E0E0"/>
<path d="M174.575 205.292V213.977L148.563 229.12V220.256C148.563 219.754 148.696 219.26 148.947 218.826C149.199 218.391 149.56 218.03 149.995 217.779L173.487 204.669C173.596 204.602 173.721 204.566 173.85 204.564C173.978 204.562 174.104 204.595 174.215 204.659C174.326 204.722 174.418 204.815 174.481 204.926C174.545 205.037 174.577 205.163 174.575 205.292Z" fill="#E0E0E0"/>
<path d="M142.19 141.682V182.702C142.189 183.297 142.032 183.881 141.734 184.396C141.436 184.911 141.008 185.339 140.494 185.637L121.878 196.47V166.527L141.21 141.331C141.286 141.253 141.384 141.198 141.491 141.173C141.597 141.148 141.709 141.155 141.813 141.192C141.916 141.229 142.006 141.295 142.073 141.381C142.14 141.468 142.181 141.573 142.19 141.682Z" fill="#E0E0E0"/>
<path d="M196.521 67.7408V87.0728L178.456 97.376C178.299 97.4666 178.121 97.5142 177.94 97.5141C177.759 97.514 177.581 97.4662 177.424 97.3755C177.267 97.2847 177.137 97.1543 177.047 96.9973C176.956 96.8402 176.909 96.6622 176.909 96.481V76.8626L194.552 66.588C194.752 66.4713 194.98 66.41 195.212 66.4103C195.444 66.4106 195.672 66.4726 195.872 66.5898C196.073 66.7071 196.238 66.8754 196.352 67.0777C196.466 67.2799 196.524 67.5087 196.521 67.7408Z" fill="#E0E0E0"/>
<path d="M196.521 99.1016V144.84L178.048 155.58C177.933 155.646 177.802 155.681 177.67 155.681C177.537 155.682 177.406 155.647 177.291 155.581C177.176 155.515 177.08 155.42 177.013 155.306C176.946 155.191 176.91 155.061 176.909 154.928V119.894C176.91 119.287 177.033 118.686 177.272 118.127C177.51 117.568 177.86 117.064 178.298 116.644L196.521 99.1016Z" fill="#E0E0E0"/>
<path d="M196.513 89.7721L177.897 101.278C177.593 101.465 177.342 101.728 177.167 102.04C176.993 102.352 176.902 102.704 176.902 103.061V110.422C176.901 110.545 176.936 110.666 177.003 110.769C177.071 110.872 177.168 110.953 177.281 111.002C177.395 111.05 177.52 111.063 177.641 111.041C177.762 111.018 177.874 110.959 177.962 110.873L196.513 93.2375V89.7721Z" fill="#E0E0E0"/>
<path d="M156.453 176.745V206.208C156.453 206.729 156.316 207.24 156.056 207.691C155.796 208.143 155.422 208.517 154.971 208.778L132.295 221.96C132.186 222.023 132.063 222.056 131.937 222.056C131.811 222.056 131.687 222.022 131.578 221.959C131.469 221.896 131.379 221.805 131.316 221.696C131.254 221.587 131.221 221.463 131.221 221.337V198.575C131.221 198.241 131.308 197.913 131.474 197.623C131.64 197.333 131.879 197.091 132.166 196.921L145.885 188.924C146.175 188.756 146.416 188.515 146.583 188.225C146.75 187.934 146.838 187.605 146.837 187.27V181.771C146.837 181.425 146.927 181.084 147.099 180.784C147.271 180.484 147.519 180.234 147.818 180.06L154.978 175.9C155.127 175.811 155.296 175.763 155.469 175.761C155.643 175.759 155.813 175.804 155.963 175.89C156.114 175.976 156.238 176.1 156.324 176.251C156.41 176.401 156.455 176.571 156.453 176.745Z" fill="#E0E0E0"/>
<path d="M143.608 223.299V231.984L123.804 243.497C123.606 243.611 123.382 243.67 123.154 243.669C122.927 243.668 122.703 243.607 122.506 243.492C122.31 243.378 122.147 243.213 122.034 243.016C121.921 242.818 121.862 242.594 121.863 242.366V202.929L124.362 201.497C124.47 201.438 124.592 201.407 124.715 201.409C124.838 201.41 124.959 201.444 125.066 201.506C125.172 201.568 125.261 201.656 125.323 201.762C125.386 201.869 125.42 201.989 125.422 202.112V229.7C125.422 229.887 125.471 230.071 125.564 230.233C125.657 230.396 125.79 230.531 125.952 230.626C126.113 230.72 126.296 230.771 126.483 230.774C126.671 230.776 126.855 230.729 127.018 230.638L141.911 222.332C142.083 222.236 142.276 222.185 142.473 222.186C142.669 222.186 142.863 222.238 143.033 222.335C143.204 222.432 143.347 222.572 143.448 222.741C143.549 222.91 143.604 223.102 143.608 223.299Z" fill="#E0E0E0"/>
<path d="M196.521 151.871V197.158L179.866 206.924C179.683 207.033 179.475 207.092 179.262 207.094C179.049 207.096 178.839 207.041 178.654 206.935C178.469 206.83 178.316 206.677 178.209 206.493C178.103 206.308 178.047 206.099 178.048 205.886V164.422C178.05 163.878 178.193 163.343 178.464 162.871C178.736 162.399 179.125 162.006 179.594 161.73L196.521 151.871Z" fill="#E0E0E0"/>
<path d="M128.672 226.163H127.956V197.086C127.958 196.7 128.059 196.32 128.248 195.983C128.437 195.646 128.709 195.363 129.038 195.16L143.916 186.21C144.132 186.078 144.311 185.893 144.437 185.673C144.562 185.452 144.629 185.203 144.632 184.95V135.703C144.634 135.202 144.767 134.711 145.018 134.277C145.269 133.844 145.63 133.484 146.064 133.233L172.742 117.224C173.212 116.94 173.602 116.54 173.872 116.062C174.143 115.584 174.287 115.045 174.289 114.496V99.8677H175.005V114.496C175.002 115.168 174.826 115.828 174.494 116.413C174.161 116.997 173.684 117.486 173.107 117.832L146.436 133.842C146.114 134.033 145.847 134.306 145.662 134.632C145.477 134.959 145.381 135.328 145.384 135.703V184.95C145.382 185.327 145.283 185.697 145.098 186.026C144.912 186.354 144.646 186.629 144.324 186.826L129.481 195.776C129.26 195.915 129.077 196.108 128.952 196.337C128.827 196.567 128.762 196.825 128.765 197.086L128.672 226.163Z" fill="#4D91FF"/>
<path opacity="0.4" d="M128.672 226.163H127.956V197.086C127.958 196.7 128.059 196.32 128.248 195.983C128.437 195.646 128.709 195.363 129.038 195.16L143.916 186.21C144.132 186.078 144.311 185.893 144.437 185.673C144.562 185.452 144.629 185.203 144.632 184.95V135.703C144.634 135.202 144.767 134.711 145.018 134.277C145.269 133.844 145.63 133.484 146.064 133.233L172.742 117.224C173.212 116.94 173.602 116.54 173.872 116.062C174.143 115.584 174.287 115.045 174.289 114.496V99.8677H175.005V114.496C175.002 115.168 174.826 115.828 174.494 116.413C174.161 116.997 173.684 117.486 173.107 117.832L146.436 133.842C146.114 134.033 145.847 134.306 145.662 134.632C145.477 134.959 145.381 135.328 145.384 135.703V184.95C145.382 185.327 145.283 185.697 145.098 186.026C144.912 186.354 144.646 186.629 144.324 186.826L129.481 195.776C129.26 195.915 129.077 196.108 128.952 196.337C128.827 196.567 128.762 196.825 128.765 197.086L128.672 226.163Z" fill="black"/>
<path d="M130.248 224.824C130.186 225.449 129.98 226.051 129.644 226.582C129.308 227.113 128.853 227.558 128.314 227.881C127.24 228.497 126.374 228.132 126.374 227.058C126.435 226.433 126.643 225.831 126.98 225.301C127.317 224.771 127.774 224.328 128.314 224.008C129.381 223.392 130.248 223.757 130.248 224.824Z" fill="#4D91FF"/>
<path d="M176.444 98.7507C176.382 99.3755 176.174 99.9772 175.839 100.508C175.503 101.039 175.048 101.484 174.511 101.808C173.437 102.424 172.57 102.059 172.57 100.985C172.632 100.36 172.839 99.7579 173.177 99.228C173.514 98.6981 173.971 98.255 174.511 97.9345C175.578 97.3187 176.444 97.6839 176.444 98.7507Z" fill="#4D91FF"/>
<path d="M180.697 87.5382C181.504 86.3304 182.032 84.9584 182.243 83.5214C182.652 80.0345 179.959 78.5094 176.243 80.1276C172.527 81.7457 169.169 85.8556 168.761 89.3568C168.662 89.8825 168.674 90.4232 168.797 90.9438C168.921 91.4644 169.152 91.9532 169.477 92.3783L169.52 92.4141C169.632 92.5392 169.757 92.652 169.892 92.7506L173.788 96.2662C174.045 96.4953 174.625 96.2662 174.962 95.7578L180.095 88.3616C180.303 88.0895 180.496 87.8174 180.675 87.5382H180.697ZM175.878 83.2422C177.754 82.4259 179.107 83.192 178.907 84.9534C178.706 86.7148 177.017 88.7983 175.141 89.6074C173.265 90.4165 171.912 89.6575 172.112 87.8962C172.313 86.1348 173.988 84.0656 175.878 83.2565V83.2422Z" fill="#4D91FF"/>
<path d="M157.857 178.542L150.697 182.666C150.502 182.777 150.34 182.937 150.228 183.131C150.116 183.325 150.058 183.545 150.059 183.769V191.702C150.059 191.753 150.072 191.804 150.098 191.848C150.123 191.893 150.159 191.93 150.204 191.956C150.248 191.982 150.298 191.996 150.349 191.997C150.401 191.997 150.451 191.985 150.496 191.96L152.93 190.528L153.775 191.96C153.786 191.979 153.801 191.995 153.82 192.007C153.839 192.018 153.861 192.024 153.883 192.024C153.905 192.024 153.926 192.018 153.945 192.007C153.964 191.995 153.98 191.979 153.99 191.96L154.763 189.511L157.627 187.878C157.861 187.742 158.056 187.546 158.191 187.311C158.327 187.077 158.399 186.811 158.401 186.539V178.842C158.405 178.777 158.39 178.713 158.359 178.655C158.328 178.598 158.281 178.551 158.224 178.52C158.167 178.488 158.102 178.473 158.037 178.477C157.972 178.481 157.909 178.504 157.857 178.542Z" fill="#4D91FF"/>
<path d="M152.308 186.876V187.714L151.864 187.964V187.134L150.933 186.131L151.405 185.859L152.121 186.611L152.837 185.05L153.267 184.8L152.308 186.876Z" fill="white"/>
<path d="M153.596 186.876C153.533 186.883 153.469 186.876 153.409 186.853C153.349 186.831 153.296 186.794 153.253 186.747C153.162 186.631 153.118 186.486 153.131 186.339C153.131 186.149 153.172 185.96 153.253 185.788C153.336 185.593 153.452 185.414 153.596 185.258C153.74 185.1 153.907 184.965 154.09 184.857C154.241 184.761 154.413 184.702 154.592 184.685C154.655 184.682 154.718 184.692 154.777 184.714C154.836 184.736 154.89 184.77 154.935 184.814C155.023 184.931 155.066 185.076 155.057 185.222C155.053 185.412 155.012 185.599 154.935 185.773C154.759 186.167 154.463 186.495 154.09 186.711C153.944 186.81 153.773 186.867 153.596 186.876ZM154.477 185.967C154.589 185.815 154.652 185.633 154.656 185.444C154.656 185.272 154.606 185.165 154.506 185.122C154.441 185.1 154.372 185.095 154.304 185.106C154.237 185.118 154.173 185.145 154.119 185.186C153.96 185.278 153.827 185.409 153.732 185.566C153.637 185.713 153.585 185.884 153.582 186.06C153.582 186.232 153.632 186.339 153.732 186.389C153.798 186.409 153.867 186.413 153.934 186.4C154.002 186.388 154.065 186.359 154.119 186.318C154.268 186.226 154.391 186.098 154.477 185.945V185.967Z" fill="white"/>
<path d="M157.219 183.053V184.864L156.818 185.093V184.864C156.745 184.985 156.659 185.098 156.561 185.201C156.464 185.3 156.353 185.385 156.231 185.451C156.152 185.515 156.059 185.559 155.96 185.581C155.86 185.604 155.757 185.603 155.658 185.58C155.522 185.53 155.451 185.365 155.451 185.107V184.069L155.873 183.826V184.8C155.873 184.964 155.909 185.065 155.988 185.1C156.067 185.136 156.167 185.1 156.303 185.043C156.45 184.959 156.574 184.838 156.661 184.692C156.749 184.548 156.796 184.382 156.797 184.212V183.296L157.219 183.053Z" fill="white"/>
<path d="M256.801 276.075C257.021 276.459 257.137 276.893 257.137 277.335C257.234 278.67 257.234 280.01 257.137 281.345C257.015 281.961 255.705 282.856 254.037 282.67C252.369 282.483 251.252 281.238 250.457 279.97C249.662 278.703 246.061 274.428 245.409 273.39C244.757 272.352 243.741 269.595 245.008 268.464C246.075 267.512 250.07 269.689 251.137 270.891C252.204 272.094 256.801 276.075 256.801 276.075Z" fill="#263238"/>
<path d="M239.796 288.706C240.175 289.316 240.44 289.99 240.576 290.696C240.834 291.849 241.249 294.613 241.034 295.443C240.927 295.844 239.495 296.875 238.084 296.947C237.247 296.99 236.237 297.025 235.421 297.054C234.817 297.068 234.224 297.22 233.688 297.498C232.224 298.254 230.72 298.933 229.184 299.531C226.507 300.555 222.991 300.963 221.308 300.598C219.626 300.233 217.628 299.166 216.826 298.121C216.663 297.857 216.583 297.549 216.597 297.239C216.612 296.928 216.719 296.63 216.905 296.381C218.974 294.655 222.411 293.803 224.538 292.923C227.422 291.67 230.193 290.173 232.822 288.448C233.344 288.047 239.796 288.706 239.796 288.706Z" fill="#263238"/>
<path d="M239.796 284.775V288.706C239.362 289.219 238.82 289.631 238.208 289.911C237.597 290.19 236.931 290.331 236.259 290.324C235.565 290.396 234.865 290.257 234.252 289.925C233.639 289.593 233.14 289.083 232.822 288.462C232.925 287.236 232.956 286.005 232.915 284.775H239.796Z" fill="#FFA8A7"/>
<path d="M256.801 273.705V276.075C256.801 276.075 256.45 277.321 254.073 277.4C253.024 277.459 251.99 277.139 251.158 276.498L250.664 273.011L256.801 273.705Z" fill="#FFA8A7"/>
<path d="M225.225 201.06C225.225 201.06 226.063 238.578 227.151 245.452C227.903 250.156 232.879 285.791 232.879 285.791C233.965 286.361 235.175 286.654 236.402 286.644C237.628 286.634 238.833 286.321 239.91 285.734C239.91 285.734 239.91 284.481 240.082 282.441C240.254 280.4 241.808 262.994 241.65 256.45C241.592 252.652 240.845 248.897 239.445 245.366L241.65 213.017L242.674 213.146C242.674 213.146 242.624 216.597 243.053 222.726C243.053 222.726 243.87 235.077 244.156 237.504C244.7 242.029 247.736 258.505 248.624 262.872C249.426 266.789 250.729 274.02 250.729 274.02C252.641 275.925 256.808 274.421 256.808 274.421C256.808 274.421 257.015 269.51 257.23 266.51C257.445 263.509 258.361 250.042 257.996 246.504C257.488 241.578 255.476 236.838 255.655 235.585C256.7 228.332 256.801 197.458 256.801 197.458L225.225 201.06Z" fill="#4D91FF"/>
<path opacity="0.4" d="M225.225 201.06C225.225 201.06 226.063 238.578 227.151 245.452C227.903 250.156 232.879 285.791 232.879 285.791C233.965 286.361 235.175 286.654 236.402 286.644C237.628 286.634 238.833 286.321 239.91 285.734C239.91 285.734 239.91 284.481 240.082 282.441C240.254 280.4 241.808 262.994 241.65 256.45C241.592 252.652 240.845 248.897 239.445 245.366L241.65 213.017L242.674 213.146C242.674 213.146 242.624 216.597 243.053 222.726C243.053 222.726 243.87 235.077 244.156 237.504C244.7 242.029 247.736 258.505 248.624 262.872C249.426 266.789 250.729 274.02 250.729 274.02C252.641 275.925 256.808 274.421 256.808 274.421C256.808 274.421 257.015 269.51 257.23 266.51C257.445 263.509 258.361 250.042 257.996 246.504C257.488 241.578 255.476 236.838 255.655 235.585C256.7 228.332 256.801 197.458 256.801 197.458L225.225 201.06Z" fill="black"/>
<path opacity="0.4" d="M241.65 212.981L242.674 213.117C242.674 213.117 242.617 216.783 243.075 223.299C243.075 223.299 243.275 226.406 243.519 229.886L245.194 213.296C248.31 211.471 251.025 209.036 253.178 206.136C246.376 211.349 241.65 212.96 241.65 212.96V212.981Z" fill="black"/>
<path d="M258.641 156.532C257.658 155.185 256.274 154.183 254.688 153.668L255.949 191.852C255.949 191.852 265.257 187.699 265.543 185.236C265.822 183.031 260.366 158.952 258.641 156.532Z" fill="#37474F"/>
<path d="M227.473 135.825C227.43 134.243 227.43 132.245 227.473 131.486C227.659 128.658 228.504 127.534 228.504 127.534C231.963 123.016 244.636 124.033 245.538 126.574C246.44 129.116 248.201 142.992 244.292 145.47C244.693 147.618 245.817 152.93 245.817 152.93C242.66 155.794 236.044 154.885 236.044 154.885C236.237 153.919 235.328 150.045 234.869 148.076C232.163 148.398 229.807 148.362 229.041 147.79C228.982 147.747 228.929 147.696 228.884 147.639C228.297 146.801 227.881 143.615 227.652 139.763C226.936 139.856 225.826 139.949 225.683 139.67C225.54 139.391 226.807 136.999 227.473 135.825Z" fill="#FFA8A7"/>
<path d="M234.719 136.083C234.719 136.083 234.361 133.598 236.867 133.362C239.373 133.126 240.905 136.312 239.681 138.639C238.457 140.966 236.867 141.116 236.867 141.116C236.706 142.654 236.706 144.204 236.867 145.742C236.932 146.169 237.152 146.556 237.485 146.831C237.818 147.106 238.24 147.248 238.671 147.231C240.461 147.181 243.683 146.916 246.061 145.756C249.533 144.059 251.903 140.544 253.221 135.546C254.538 130.548 254.746 125.851 251.073 125.679C251.073 125.679 251.037 124.283 253.099 123.732C253.099 123.732 250.8 122.679 249.812 124.598C249.699 123.505 249.267 122.469 248.569 121.62C247.872 120.771 246.939 120.146 245.889 119.823C242.223 118.727 237.676 120.36 233.717 121.255C229.757 122.15 224.552 121.677 224.101 122.243C223.65 122.808 221.709 133.885 232.693 133.369C232.657 133.348 233.165 136.04 234.719 136.083Z" fill="#263238"/>
<path d="M229.041 147.79C229.807 148.362 232.163 148.398 234.869 148.076C235.448 147.711 235.937 147.222 236.301 146.644C236.101 146.716 231.784 148.584 229.041 147.79Z" fill="#F28F8F"/>
<path d="M225.139 174.912V201.196C225.139 201.196 234.519 204.891 243.411 203.58C252.304 202.27 257.015 197.322 257.015 197.322C257.015 197.322 257.409 162.654 256.772 158.444C256.135 154.234 253.292 152.236 251.116 151.756C248.939 151.276 245.681 152.179 245.681 152.179C242.783 153.757 239.504 154.501 236.208 154.327C233.71 155.157 230.974 156.475 228.69 157.334C222.182 159.876 225.139 174.912 225.139 174.912Z" fill="#4D91FF"/>
<path opacity="0.4" d="M225.139 174.912V201.196C225.139 201.196 234.519 204.891 243.411 203.58C252.304 202.27 257.015 197.322 257.015 197.322C257.015 197.322 257.409 162.654 256.772 158.444C256.135 154.234 253.292 152.236 251.116 151.756C248.939 151.276 245.681 152.179 245.681 152.179C242.783 153.757 239.504 154.501 236.208 154.327C233.71 155.157 230.974 156.475 228.69 157.334C222.182 159.876 225.139 174.912 225.139 174.912Z" fill="white"/>
<path d="M207.855 173.143L201.862 155.136L211.399 149.83L212.158 150.009L217.385 167.838L207.855 173.143Z" fill="#37474F"/>
<path d="M208.614 173.322L202.621 155.315L212.158 150.009L218.151 168.017L208.614 173.322Z" fill="#455A64"/>
<path d="M208.821 171.482L203.881 156.618L212.094 152L217.034 166.864L208.821 171.482Z" fill="white"/>
<path d="M203.544 159.582C203.544 159.582 204.003 159.224 204.218 160.506C204.432 161.787 205.65 166.312 207.798 167.766C207.798 167.766 208.277 167.966 208.292 167.537C208.305 166.538 208.467 165.546 208.771 164.594C209.201 163.477 210.332 162.718 210.862 162.911C211.392 163.105 210.812 165.145 210.862 165.926C210.912 166.706 211.965 168.511 212.015 169.348C212.065 170.186 211.929 170.78 212.015 171.174C212.787 172.209 213.622 173.197 214.514 174.131L209.852 180.031C209.852 180.031 206.824 176.007 206.043 175.212C205.263 174.418 203.895 172.857 203.509 171.439C202.963 169.445 202.566 167.413 202.32 165.36C202.32 164.136 202.306 159.969 203.544 159.582Z" fill="#FFA8A7"/>
<path d="M230.552 156.568L233.602 156.145C233.602 156.145 236.015 156.281 235.442 163.513C234.869 170.745 227.674 190.306 225.877 192.683C223.464 195.876 220.7 193.936 220.149 193.198C219.597 192.461 213.59 185.702 209.938 180.031C209.938 180.031 210.79 174.683 214.9 174.074L219.669 179C219.669 179 221.144 173.48 222.69 167.544C224.108 162.217 225.54 157.699 230.552 156.568Z" fill="#37474F"/>
</svg>
