<svg width="28" height="29" viewBox="0 0 28 29" fill="none" xmlns="http://www.w3.org/2000/svg">
<g id="logo_x2F_32_x2F_text_x2F_color_x2F_gopay">
<g id="Group">
<path id="Oval" d="M13.9891 28.3616C21.7151 28.3616 27.9783 22.0126 27.9783 14.1808C27.9783 6.34896 21.7151 0 13.9891 0C6.26315 0 0 6.34896 0 14.1808C0 22.0126 6.26315 28.3616 13.9891 28.3616Z" fill="#00AED6"/>
<path id="Oval_00000043418500978943989490000002100934558821794719_" d="M13.9891 28.3616C21.7151 28.3616 27.9783 22.0126 27.9783 14.1808C27.9783 6.34896 21.7151 0 13.9891 0C6.26315 0 0 6.34896 0 14.1808C0 22.0126 6.26315 28.3616 13.9891 28.3616Z" fill="#00AED6"/>
<path id="Shape" fill-rule="evenodd" clip-rule="evenodd" d="M22.1865 13.7376C22.0772 11.965 20.5471 10.5248 18.7985 10.6356H9.94599C9.61812 10.6356 9.39954 10.414 9.39954 10.0817C9.39954 9.7493 9.61812 9.52772 9.94599 9.52772H18.9078C18.9078 8.30906 18.0335 7.20119 16.8313 6.86882C14.2083 6.42567 11.5853 6.42567 8.96238 6.86882C7.43232 7.20119 6.33942 8.53063 6.12084 9.97087C5.68368 12.7406 5.68368 15.621 6.12084 18.3907C6.44871 20.0525 7.6509 21.2712 9.29025 21.4928C12.569 21.9359 15.8477 21.9359 19.0171 21.4928C20.4378 21.1604 21.5307 19.9417 21.7493 18.5015C22.0772 16.9505 22.1865 15.3995 22.1865 13.7376ZM19.2356 15.7318V16.2858C19.2356 16.6181 19.0171 16.8397 18.6892 16.8397C18.3613 16.8397 18.1427 16.6181 18.1427 16.2858V15.7318C17.9242 15.621 17.8149 15.2887 17.8149 15.0671C17.8149 14.6239 18.252 14.1808 18.6892 14.1808C19.1264 14.1808 19.5635 14.6239 19.5635 15.0671C19.5635 15.2887 19.4542 15.5102 19.2356 15.7318Z" fill="white"/>
</g>
</g>
</svg>
