<svg width="26" height="26" viewBox="0 0 26 26" fill="none" xmlns="http://www.w3.org/2000/svg">
<g id="gg:profile">
<g id="Group">
<path id="Vector" fill-rule="evenodd" clip-rule="evenodd" d="M17.3334 9.74984C17.3334 10.8991 16.8768 12.0013 16.0642 12.814C15.2515 13.6266 14.1493 14.0832 13 14.0832C11.8507 14.0832 10.7485 13.6266 9.93589 12.814C9.12323 12.0013 8.66669 10.8991 8.66669 9.74984C8.66669 8.60057 9.12323 7.49837 9.93589 6.68571C10.7485 5.87305 11.8507 5.4165 13 5.4165C14.1493 5.4165 15.2515 5.87305 16.0642 6.68571C16.8768 7.49837 17.3334 8.60057 17.3334 9.74984ZM15.1667 9.74984C15.1667 10.3245 14.9384 10.8756 14.5321 11.2819C14.1258 11.6882 13.5747 11.9165 13 11.9165C12.4254 11.9165 11.8743 11.6882 11.468 11.2819C11.0616 10.8756 10.8334 10.3245 10.8334 9.74984C10.8334 9.1752 11.0616 8.6241 11.468 8.21777C11.8743 7.81144 12.4254 7.58317 13 7.58317C13.5747 7.58317 14.1258 7.81144 14.5321 8.21777C14.9384 8.6241 15.1667 9.1752 15.1667 9.74984Z" fill="#8897AE"/>
<path id="Vector_2" fill-rule="evenodd" clip-rule="evenodd" d="M13 1.08325C6.41876 1.08325 1.08334 6.41867 1.08334 12.9999C1.08334 19.5812 6.41876 24.9166 13 24.9166C19.5813 24.9166 24.9167 19.5812 24.9167 12.9999C24.9167 6.41867 19.5813 1.08325 13 1.08325ZM3.25001 12.9999C3.25001 15.2641 4.02243 17.3484 5.31701 19.0038C6.22618 17.8098 7.39907 16.8422 8.74406 16.1766C10.0891 15.511 11.5697 15.1653 13.0704 15.1666C14.5517 15.1652 16.0138 15.5019 17.3452 16.1511C18.6766 16.8003 19.8423 17.7448 20.7534 18.9128C21.6921 17.6817 22.3241 16.2447 22.5971 14.7209C22.8702 13.197 22.7765 11.6301 22.3237 10.1497C21.8709 8.66922 21.0722 7.31789 19.9935 6.20746C18.9147 5.09703 17.5871 4.25943 16.1204 3.76397C14.6537 3.26851 13.0901 3.12942 11.559 3.35822C10.0279 3.58702 8.57328 4.17713 7.31551 5.07973C6.05774 5.98232 5.03297 7.17145 4.32601 8.54871C3.61904 9.92598 3.25021 11.4518 3.25001 12.9999ZM13 22.7499C10.7618 22.7533 8.59113 21.9833 6.85534 20.5703C7.55402 19.57 8.48396 18.7534 9.56605 18.1898C10.6481 17.6262 11.8504 17.3324 13.0704 17.3333C14.2753 17.3323 15.463 17.6188 16.5348 18.169C17.6067 18.7191 18.5319 19.5171 19.2335 20.4966C17.4843 21.9555 15.2778 22.7531 13 22.7499Z" fill="#8897AE"/>
</g>
</g>
</svg>
