<svg width="42" height="42" viewBox="0 0 42 42" fill="none" xmlns="http://www.w3.org/2000/svg">
<g id="mdi:voucher-outline" clip-path="url(#clip0_259_539)">
<path id="Vector" d="M19.9496 15.0498L22.0497 15.0498L22.0497 26.9499L19.9496 26.9499L19.9496 15.0498ZM6.99953 20.9999L20.9997 6.99973C21.9709 6.02848 23.5284 6.02847 24.4997 6.99973L27.9997 10.4998C27.5356 10.9639 27.2748 11.5934 27.2748 12.2498C27.2748 12.9062 27.5356 13.5357 27.9997 13.9998C28.4639 14.4639 29.0934 14.7247 29.7497 14.7247C30.4061 14.7247 31.0356 14.4639 31.4998 13.9998L34.9998 17.4998C35.971 18.4711 35.971 20.0286 34.9998 20.9999L20.9997 35C20.5355 35.4641 19.906 35.7249 19.2496 35.7249C18.5933 35.7249 17.9638 35.4641 17.4996 35L13.9996 31.5C14.9709 30.5287 14.9709 28.9712 13.9996 27.9999C13.5355 27.5358 12.906 27.275 12.2496 27.275C11.5932 27.275 10.9637 27.5358 10.4996 27.9999L6.99953 24.4999C6.53539 24.0358 6.27465 23.4063 6.27465 22.7499C6.27465 22.0935 6.53539 21.464 6.99953 20.9999ZM8.74954 22.7499L10.9721 24.9724C11.8104 24.7473 12.6932 24.7469 13.5317 24.9713C14.3702 25.1958 15.1349 25.6371 15.7486 26.2509C16.3624 26.8647 16.8037 27.6293 17.0282 28.4678C17.2526 29.3063 17.2522 30.1891 17.0271 31.0275L19.2496 33.25L33.2498 19.2498L31.0272 17.0273C30.1889 17.2524 29.3061 17.2528 28.4676 17.0284C27.6291 16.8039 26.8645 16.3626 26.2507 15.7488C25.6369 15.1351 25.1956 14.3704 24.9711 13.5319C24.7467 12.6934 24.7471 11.8106 24.9722 10.9723L22.7497 8.74975L8.74954 22.7499ZM15.3121 19.6873C16.0384 18.9611 17.2109 18.9611 17.9371 19.6873C18.6634 20.4136 18.6634 21.5861 17.9371 22.3124C17.2109 23.0386 16.0384 23.0386 15.3121 22.3124C14.5858 21.5861 14.5858 20.4136 15.3121 19.6873ZM24.0622 19.6873C24.7884 18.9611 25.961 18.9611 26.6872 19.6873C27.4135 20.4136 27.4135 21.5861 26.6872 22.3124C25.961 23.0386 24.7884 23.0386 24.0622 22.3124C23.3359 21.5861 23.3359 20.4136 24.0622 19.6873Z" fill="white"/>
</g>
<defs>
<clipPath id="clip0_259_539">
<rect width="29.6988" height="29.6988" fill="white" transform="translate(-0.000488281 20.9999) rotate(-45)"/>
</clipPath>
</defs>
</svg>
