<svg width="21" height="21" viewBox="0 0 21 21" fill="none" xmlns="http://www.w3.org/2000/svg">
<g id="mdi:wallet-plus">
<path id="Vector" d="M2.625 0V2.625H0V4.375H2.625V7H4.375V4.375H7V2.625H4.375V0H2.625ZM7.875 2.625V5.25H5.25V7.875H2.625V16.625C2.625 17.0891 2.80937 17.5342 3.13756 17.8624C3.46575 18.1906 3.91087 18.375 4.375 18.375H16.625C17.5963 18.375 18.375 17.5963 18.375 16.625V15.75H10.5C10.0359 15.75 9.59075 15.5656 9.26256 15.2374C8.93437 14.9092 8.75 14.4641 8.75 14V7C8.75 6.53587 8.93437 6.09075 9.26256 5.76256C9.59075 5.43437 10.0359 5.25 10.5 5.25H18.375V4.375C18.375 3.91087 18.1906 3.46575 17.8624 3.13756C17.5342 2.80937 17.0891 2.625 16.625 2.625H7.875ZM10.5 7V14H19.25V7H10.5ZM14 9.1875C14.7262 9.1875 15.3125 9.77375 15.3125 10.5C15.3125 11.2262 14.7262 11.8125 14 11.8125C13.2738 11.8125 12.6875 11.2262 12.6875 10.5C12.6875 9.77375 13.2738 9.1875 14 9.1875Z" fill="white"/>
</g>
</svg>
